<?xml version="1.0" encoding="utf-8"?>
<!-- Generator: Adobe Illustrator 17.0.0, SVG Export Plug-In . SVG Version: 6.00 Build 0)  -->
<!DOCTYPE svg PUBLIC "-//W3C//DTD SVG 1.0//EN" "http://www.w3.org/TR/2001/REC-SVG-20010904/DTD/svg10.dtd" [
	<!ENTITY ns_flows "http://ns.adobe.com/Flows/1.0/">
	<!ENTITY ns_extend "http://ns.adobe.com/Extensibility/1.0/">
	<!ENTITY ns_ai "http://ns.adobe.com/AdobeIllustrator/10.0/">
	<!ENTITY ns_graphs "http://ns.adobe.com/Graphs/1.0/">
]>
<svg version="1.0" id="OBJECTS" xmlns:x="&ns_extend;" xmlns:i="&ns_ai;" xmlns:graph="&ns_graphs;"
	 xmlns="http://www.w3.org/2000/svg" xmlns:xlink="http://www.w3.org/1999/xlink" xmlns:a="http://ns.adobe.com/AdobeSVGViewerExtensions/3.0/"
	 x="0px" y="0px" width="619.325px" height="310.067px" viewBox="0 0 619.325 310.067" enable-background="new 0 0 619.325 310.067"
	 xml:space="preserve">
<metadata><?xpacket begin="﻿" id="W5M0MpCehiHzreSzNTczkc9d"?>
<x:xmpmeta xmlns:x="adobe:ns:meta/" x:xmptk="Adobe XMP Core 5.5-c014 79.151739, 2013/04/03-12:12:15        ">
   <rdf:RDF xmlns:rdf="http://www.w3.org/1999/02/22-rdf-syntax-ns#">
      <rdf:Description rdf:about=""
            xmlns:dc="http://purl.org/dc/elements/1.1/"
            xmlns:xmp="http://ns.adobe.com/xap/1.0/"
            xmlns:xmpGImg="http://ns.adobe.com/xap/1.0/g/img/"
            xmlns:xmpMM="http://ns.adobe.com/xap/1.0/mm/"
            xmlns:stRef="http://ns.adobe.com/xap/1.0/sType/ResourceRef#"
            xmlns:stEvt="http://ns.adobe.com/xap/1.0/sType/ResourceEvent#"
            xmlns:illustrator="http://ns.adobe.com/illustrator/1.0/"
            xmlns:xmpTPg="http://ns.adobe.com/xap/1.0/t/pg/"
            xmlns:stDim="http://ns.adobe.com/xap/1.0/sType/Dimensions#"
            xmlns:xmpG="http://ns.adobe.com/xap/1.0/g/"
            xmlns:pdf="http://ns.adobe.com/pdf/1.3/">
         <dc:format>image/svg+xml</dc:format>
         <dc:title>
            <rdf:Alt>
               <rdf:li xml:lang="x-default">AI (3)</rdf:li>
            </rdf:Alt>
         </dc:title>
         <xmp:CreatorTool>Adobe Illustrator CC (Windows)</xmp:CreatorTool>
         <xmp:CreateDate>2019-07-02T19:13-05:00</xmp:CreateDate>
         <xmp:ModifyDate>2019-07-02T19:13-05:00</xmp:ModifyDate>
         <xmp:MetadataDate>2019-07-02T19:13-05:00</xmp:MetadataDate>
         <xmp:Thumbnails>
            <rdf:Alt>
               <rdf:li rdf:parseType="Resource">
                  <xmpGImg:width>256</xmpGImg:width>
                  <xmpGImg:height>164</xmpGImg:height>
                  <xmpGImg:format>JPEG</xmpGImg:format>
                  <xmpGImg:image>/9j/4AAQSkZJRgABAgEASABIAAD/7QAsUGhvdG9zaG9wIDMuMAA4QklNA+0AAAAAABAASAAAAAEA&#xA;AQBIAAAAAQAB/+4ADkFkb2JlAGTAAAAAAf/bAIQABgQEBAUEBgUFBgkGBQYJCwgGBggLDAoKCwoK&#xA;DBAMDAwMDAwQDA4PEA8ODBMTFBQTExwbGxscHx8fHx8fHx8fHwEHBwcNDA0YEBAYGhURFRofHx8f&#xA;Hx8fHx8fHx8fHx8fHx8fHx8fHx8fHx8fHx8fHx8fHx8fHx8fHx8fHx8fHx8f/8AAEQgApAEAAwER&#xA;AAIRAQMRAf/EAaIAAAAHAQEBAQEAAAAAAAAAAAQFAwIGAQAHCAkKCwEAAgIDAQEBAQEAAAAAAAAA&#xA;AQACAwQFBgcICQoLEAACAQMDAgQCBgcDBAIGAnMBAgMRBAAFIRIxQVEGE2EicYEUMpGhBxWxQiPB&#xA;UtHhMxZi8CRygvElQzRTkqKyY3PCNUQnk6OzNhdUZHTD0uIIJoMJChgZhJRFRqS0VtNVKBry4/PE&#xA;1OT0ZXWFlaW1xdXl9WZ2hpamtsbW5vY3R1dnd4eXp7fH1+f3OEhYaHiImKi4yNjo+Ck5SVlpeYmZ&#xA;qbnJ2en5KjpKWmp6ipqqusra6voRAAICAQIDBQUEBQYECAMDbQEAAhEDBCESMUEFURNhIgZxgZEy&#xA;obHwFMHR4SNCFVJicvEzJDRDghaSUyWiY7LCB3PSNeJEgxdUkwgJChgZJjZFGidkdFU38qOzwygp&#xA;0+PzhJSktMTU5PRldYWVpbXF1eX1RlZmdoaWprbG1ub2R1dnd4eXp7fH1+f3OEhYaHiImKi4yNjo&#xA;+DlJWWl5iZmpucnZ6fkqOkpaanqKmqq6ytrq+v/aAAwDAQACEQMRAD8A9U4q7FXYq7FXYq7FXYq7&#xA;FXYq7FXYq7FXYq7FXYq7FXYq7FXYq7FXYq7FXYq7FXYq7FXYq7FXYq7FXYq7FXYq7FXYq7FXYq7F&#xA;XYq7FXYq7FXYq7FXYq7FXYq7FXYq7FXYq7FXYq7FXYq7FXYq7FXYq7FXYq7FXYq7FXYq7FXYq7FX&#xA;Yq7FXYq7FXYq7FXYq7FXYq7FXYq7FXYq7FXYq7FXYq7FXYq7FXYq7FXYq7FXYq7FXYq7FXYq7FXY&#xA;q7FXYq7FXYq7FXYq7FXYq7FXYq7FXYq7FXYq7FXYq8u/NrXPzd8thtY8srZ3+gotbqCS3d7i2p9q&#xA;RuD1kjHUlRVe475n6WGGYqV8Xv5sJEjk80/5Xn+daWsd9Jp1pLp8o5R3dlatdoV7kmO4+Gn+VTfY&#xA;5X+Y0JmcYmBlHOM5cB+2O/wvvDb4GWuIj0943/Susf8AnI3zNcvwl1aztHH2hLpU7U3pv6NzLkdR&#xA;hzYxYw8Y8soH+6hFOMY5c51/m/qJZv8Al354/Mzzfr9LS90+48s2ZH6R1VLKaEM/X6vB6kx5SU+0&#xA;1KL77AjHXhcWXGcUzyjxCXxNDZjkiBKoy4h31T2PMdDsVdirsVdirsVdirsVdirsVdirsVdirsVd&#xA;irsVdirsVdirsVdirsVdirsVdirsVdiq2UyCJzEAZAp4A9C1Nq4hWO+UPMt5fwrpmv8A1W283W8Z&#xA;m1TS7RzIkMbyMIW5Vb7cfE/ay/NiA3jfB0LEHv5sQ83flhf6bdza/wCRURJZWMmp+XGIjtro95Lc&#xA;/Zgn/wCFbvTvgdodn4NdDgzbTH05BzHkf50fL5OVptVPAbjy6h5R568r+efMVpFrF15VurXQFVyO&#xA;EMbakHUcRJPF/frGN/hUdBU7Uwdi9kz7PxkY8gnnJ3BMvDrqI9OI95bNXrI55bxqHwv4+T0b/nH2&#xA;31S4/KC9TTroWWsXN5elLyWP1RHcNxUOY2IDUoNj/Zm61sYQyxFeiMRt5OviSQT1T7Q/zPvtK1KH&#xA;y3+YlqmjaxIeFlq0ZJ02+I2rHKaek57o/wCFQuQyaUSHHiPFHu6hIl0L0bMFmxnzZ5mv7ST9D+XP&#xA;qt75saOO7i0q6cx8rQy+nJLyqoHGhpv2y/DiB9UrEO/zYk93Nk2UMnYq7FXYq7FXYq7FXYq7FXYq&#xA;7FXYq7FXYq7FXYq7FXYq7FXYq7FXYq7FXYqxvy9570vVlt47qGXRtQvJriCy0vUQsN1MLbd5I46n&#xA;mnHfktR75fk05jy9QHUct2IlbvNPl65lkh1bR5xpmoW88VxqVxbW0ct1fWduGLWXM0Px8vhrWh6D&#xA;HFkA9Mtx032B71ITHy1ri67oVnq62lxYLdpzFpeJ6c6UYrR1qaVpUe2Qy4+CRjd13JBtM8rSw7z1&#xA;5v8ALWk6Tqmmx+ZNP0LXpYX+rtLJH6sU8iVSR4RyffY14nxzKwYZykDwmUWMiHlX5a+VofzR0K7/&#xA;AMUeYNevRp92I7mBbxTptyQOSvFWFTT/ACa1XbxzYarL+XkOCMRY7tx9rXEcXN7b5m12Pyx5dl1J&#xA;bC71KO0Eca2dkvr3D83WJeIZgzULCpqTTfNVix+JKrAvvbSaCh5Y8t3VgZbzWLxNY1eSSX6vqb2y&#xA;QTxWkjBktQRVuC9evXthy5Qdojhj3X170ALNY89aVYyiCyil1m8jv4NOvrPTws01q1yGKSXCVHpx&#xA;/D9ptsMNOTufSKvfr7lMmR5QyYf5g/NnyVoepTabcXM1ze2qh72Kxt5rr6upNKztCrKlOpBNadss&#xA;MKAMjGPFsOKQjfuvmkAm6BNdyeeX/NHl3zFZ/XND1CDUIP2mhcFkJ7On2kPswBxyYpQNSFMQQU0y&#xA;tLsVdirsVdirsVdirsVdirsVdirsVdirsVdirsVYb5s/MBdJk1vS7eIQ61p+lPq2ntegLa3Sxhua&#xA;oyupJQqAwJU716b5lYdPxcJP0mVGuYYmVMZs/wA/vKM/mPTY5dXtIdFu9Ka4unYNzhv/AFI+MLN2&#xA;/ds+1Ooy+XZ8xE7HiEvsY+ILS7SP+cgdKntPJ5vtWsILi/Mx8zDg4FuEgd4wu/wcpAq7165OfZxB&#xA;nQO30oGTkyXy7+btnqUEErxrdPrGt3GmaBb2PxSSWduwBupg7/CqKC7nb4eO2+UZNGY+XDEE339z&#xA;ITZlq3l7SdUkhuLqBTe2qTR2N8opcW/1hPTkaCQfEjEdxmLDJKOw5feyISfy7pHm3RNQsNI+tJqP&#xA;li108rLqF2zNqUl8ZSfib7DR+n02r4k5bknCYMqqZPIcqQAQyrMdk8f1H86dd1PXXtPI9ha3ulwQ&#xA;eo2o6iLmBLhy5jP1aiDkiEbk9d6ZVr9bptFEHPI8RNVDhkY7X6he1t+n0uTMfSPne/uYw/nTWbvU&#xA;bP1dE0G581T6nqFpd6nNZ1WaLTrW3mjTkSZUqLoJXkace+9b8naWLHohqTx+EYwPDe44pV7jVX5o&#xA;jpZSzHFtxb7+4Mw8pfm/fL5lby75tsLfTDO9vFpNzYLPJbGW5JCW0kjJQSHsdgd8hpdRg1eIZMMj&#xA;/F6ZcIlUecqs7Mc2CeKVSHxHLd6vha2I+YdD83a/datpEt8NJ8uzQW7afqWnO6aktwkgeQFj8Kp8&#xA;FNhUg9eozJx5IQAlVy6g8mJBKe2mk6Ho3129ghhs2uSJ9RuzxQyNGtPVmc0qeI3Y/PKTOUqHPuTV&#xA;PMPMf5jax5tkl0vybK9hoSkx3vmbiRJNTZo7BT9xmP8AsexOu7V7Xw9nipfvM/SHQec/+J5nyczS&#xA;aGec3yh3/qQ2j6Jpuj2YtLCERR1LOxJZ5HP2nkc7sx7k55hr+0M2ryHJllxS+weQHQPT4cEMUeGI&#xA;oIPUPKekXF3+koDLpeqrUrqmnyG2uB4lnTZvfmDmx7N9otZpQIxlxw/mS9Uf1j4ENGo0GLLuRR7x&#xA;sy38mPOGta/b63Z6jepq8Oj3SW9prKIsZnV4+bK4T4C0Z25Ab56eCZYseSUPCnONmPdv+nn5PLZI&#xA;iMzEHiA6vSMgxdirsVdirsVdirsVdirsVdirsVdirsVdirsVeYecdI03zZ+bGi+X9cgj/Rek2Emr&#xA;W8Uqgm9meQRGIN/vuIKHdK/FtUFcz8MzjwmUeZNe5rkLNMH/ADUe3/xdrrvp8V1b+VrG1/RWkBAI&#xA;OVwhkknaMCjEfZ6bKu2+W4SeCAuuMmz7uiDzPkxvy5rllcwaF5r07TE07VIdRtrG6jiRUivY55Ej&#xA;miCb81If4SakEe2XTxmMzjMuKJiT7kA2Les+Y9D0fyr+Z/lvX9EtYV1DzDO+lalpsSKGkhdfUe9j&#xA;FPgMBjUykfaX364uLJLJhlGR2juD+j49GRFG3lvnvzj5n1rz15tt5/OUnlK28tiUaRp6SSRfWmgq&#xA;Aq+k8dWl48qtyPxAAU6bDT4YRxwIhx8XM9zXKRJO9PavyT81ax5o/LrTdV1f474mWCS4oF9YQyFB&#xA;JQbVNKH3BzVa7FHHlIjybYGw3+dWvXujfl9fNp8k8ep37w2Fg1t/e+rcSBaK37BKBgG7Hpvlem4R&#xA;LikQIxBkb5UGRBOw5l5hYprxtdHg8uW36K0iGN/rMOoRH1g0cigRspfmPUUu3MV/HPNdRLTceaWr&#xA;l42eRHCccvTuD6gar0nhHCa+x6iAyVEYhwQH84b+7477pPac/wDF9hwpz/TfmDjy6V/R2nUrTOp1&#xA;lfyDG+XBi/6aSdZh/wAePvl9yM1uPzIPLt/b61BJqN8J420W40qNkkWcRLIkoKMWiEM4I5kg+2+a&#xA;Hs3Lpo6zFk0sxhiInxPEl04qI5DiMo0aHI9dnO1EMhxSjkHGf4eEeX2UXuP5c66+veRNC1WSR5bi&#xA;4s4vrMsi8GaeNfTmYr7yI1M77UQ4ckgO95yJ2ZHlKXy9+Zf5n6nrnnO90bUYaeV9IvZrT9DpMbd7&#xA;yS1fiZZJHURyioqsPNe3Xvss2hyfl/3E+DNIfURdX939ajSMWWIncxcR0/H3Ms8v+afL2qAWlhKI&#xA;LiBQrabKnoTxAD7PpNQ0A/l2zxztTsbV6WRlmiSCfr+qJ/zvPz3eu02rxZRUD8OX2I7VtY03SLJ7&#xA;3UZ1t7dOrN1J7KoG7MewGYOi0WXU5BjxRMpH8b9w827LmjjjxSNB5b5m836lr0ktpwNpp0Q5y6e7&#xA;+kfTPSTUZl/uUPaFfjb7s9Y7C9l8OiAyT9ebv5geUB1P9IvL63tKWb0x9MPv9/6npP8Azjv5V1+x&#xA;vtT16T1IdC1K3ijgSRBbrcTI3wzw2ygenEkfwJy3atflu9fliYiP8QPvr3nvdfjHV7hmrbXYq7FX&#xA;Yq7FXYq7FXYq7FXYq7FXYq7FXYq7FXlH5u6drt9ftq4lk0TSvJ1hPqtnrMXpNPPfupCQRg8iIgsd&#xA;JFNOfIClKHNjo5RA4fqMzVeTXMfYxPVPL35n+ZPOOgLcXml6dr82jNfT31vbzKTbLJGv1e5R5HSQ&#xA;rJNsVQUy/iwxxy2kY8VfHvDH1Wk/l3SfPt5q3kXzFcahpl02ttO+lWt5DN9Xtp4oHlErpC8XN6IV&#xA;Qltidhk5DDCM4gEcPPvO6NzRZd5Og863Pm1PON841zU7XUbvy1rtgiJGllAsi+nPZhjsq/C8lTyZ&#xA;X+nKcxxiHAPSKEh5+9lG7tn3mf8AKT8vfM+qx6rrWkJcX6UDTK8sRkCiiiURMgen+V8umYeLWZcY&#xA;4YnZmYAsn07TrHTbGCwsIEtbO2QRwW8ShURR0AAyiUjI2ebIBgP5+2N7d/l1cejGZrG2ube61iBW&#xA;VHexgf1JQjN+0CFbbfb6Mu03FxEQNTMSInmBIja0Gtr5Xv7mA61a6+ukWFn5SSNbNlj9O5MxDwqr&#xA;K6N+8D+pGUBDLWprnmGgy6Y58mTXE8fquPDtI0QRtXDK6IPIU9Vmjk4Ixw8u++X6wx8LdN5mtltH&#xA;WO7bWPMQt5HFVWQ6bp3AkdwGzsc5gOxIGYuHDhseXiG/sdRAH87Kufq/3KcPHdf4GvE86W9Le0hB&#xA;kVLhnlmEKg83kT0xykkHwr8q5ysZQ/lGB7Pl6py2uAEY8R5AG9ox5n307Qg+AfHGwHfua/WXrv5R&#xA;WGr6f+Wvl+01agvYrUVVSDxiZmaBSV2qsJQH3z0nWSByyI5W8vDky/MZk8989fk1ofma6n1KznbS&#xA;tXuFAupFRZ7a54ii/WbaT4HI7MOLe/TMvDqzAURYHzHuLCULeFebvyx80+WV56lZFLC2NYdRtvVu&#xA;7BBWoYMv+m2VOp+0lc2ePNDICBvfMGgf+Jk10Qx2xudU1XVvqr3E97fxukenenP+kLxxIgPC04gR&#xA;qdiXnYVQU/aG8cWhw4I/u4RgJfVUeEf53X3R5Mp5pzPqJNfF7Ho35Y6L5M8uv5s89wrMmncZrXy7&#xA;bfvoI5pGCR+oT/vVcu7BeTfCCdtt8olqDklwY+Z/iP42C8NCy9M8i+f7PzUdQtxYXGmahpjRfWrK&#xA;54EiOcMYXV4yyEMI22BqCMwc2HgAIPED1ZiVsqyhk7FXYq7FXYq7FXYq7FXYq7FXYq7FXYq7FXYq&#xA;8C/Mjzp50g89+YtL02+1ZLSwgtWgg06G0kiUzW/NjKZxzozA9PfDqtQMEcRvDHjJvxDME0R9PDt1&#xA;6+TbgxcfFtM1/Nr7bZ/oPnXS9N/Lryz5p8zShZr20s7a61RlBYNOo+KRuoRnFW7V3zLyYDLLKEOh&#xA;OzjiWwJZrb22mPb20ltFA1vGBJZtGqFFVhs0RXYAqeq5ikmzbNBeaNU1PSNBur/StKk1i9h4mLTo&#xA;WWN5OTgNRjXoCW2BJyWKAlIAnhHegmkl1OH8zNROtWtlNZaJC0dq+hX5U3Myvs1yk6E8Oq8QQCN+&#xA;/a2JxRom5c7H3INplZ6SNH1XVdd1DW55ba+S3DW91IiWlsYV4Fol2VPUJFffxyEp8QERHl8ymqTe&#xA;9srLUbGeyu4luLO7jaKeF90eOReLKfYg5VGRibHMJeG61+WHm/yXqWq3fkTSotT0e9WCRLWW4dp7&#xA;cWycZIwkjcpedSUo+3SnTKO0+zMHaXB40zDg4uQG5l1vpVb7b+Tk6XWSwXwi7r7Enk8s+cbWzsPN&#xA;UWgX00jatq08eliE/WkjvbW3t7d5YQeagyWnxeANccnZviaAaMziCI4wZXt6ZXKjXcTXemOqEc5y&#xA;1tv92zIfLX5Qa15n1yLW/wAxNMgtre3s1t49LguHb1pfUEvqSCNvhRQSvAu1T16b29naTF2fjljw&#xA;yMxKfFZAsbVXmfOg16nUSzyEpCqFPbJpra0t2mmkS3toVq8jkIiKo6kmgAGSAJLSxrVvLes3d5qO&#xA;taH5gntrq900WmnW7FZrGKWpdbkRkNVjsKjtXrsBfDLEARlHkd+/3MSFCe+/MbSfrcktlba5Y2Ok&#xA;xvCbYtBd3epJtIojPNERgCdq02py6AiOKVbmJMvgAu7KNOuJ7rTra4ubZrOeeJJJrOQqzRO6gtGz&#xA;LVSVJpUZRIAEgG2QQem+VvLOl3k17puk2dleXFfXube3iikepqeTIoJqd8lLLOQokkIADzH86/Ov&#xA;lm6j0LQYNXs5WfVI7jUlS4if04bJGm4yqrHjzkCU5demZmlwzAlKj9NDbv2YSkNgnf5IaRIPL135&#xA;nukKXvmef62gbZlsoqx2aHt/d1f/AGWVas0RjHKAr49Uw7+96PmIzdirsVdirsVdirsVdirsVdir&#xA;sVdirsVdirsVeK+ZVUfmT5vIABaw00sR3Pp3AqfoGc17XfTpf62T78bt+yP8p7h/vm7y2S4/IzyO&#xA;JFSSJbjQjLFIodXVp40KlWBDA89wc7mJrUT/AM50f8ITs/X/AMrrn9ykt9+XMr/vFBaafRmbckfa&#xA;d7Q1qe6f8Sq21A7sv+6/an6fc9Ktrm3ubeK5tpVmt5lEkM0ZDI6MKqysNiCOhzBIINFsSXzB5usd&#xA;LvE0eAfWvMd7a3NzpOliq/WGtkL8DKR6cfI7VcjLceEyHF/CCLPvQSk0flPU/NUEk/nBmGj6vp9v&#xA;HeeUST6dvcxuspk+sxMrs3Je1Ke+W+MMZ9H1A/V5e5jV80+h8yaYPNLeVI4ZlvILFb71BHS3EPqC&#xA;IIJK/br+zTplJxHg4+l0yvek5ypLsVdirHJNS8veabzzD5Pu7WaaOxSGHU1lVo4ZEuo+aiKRWDHY&#xA;EGlCCMvEZYxGYPPl8GNg7JXfaf5u8r/Xb3QUbXbBlsbPSPK9VgW0hgVYpHW4djyqKk8/+CyyMoZK&#xA;EvSdyZd/wRRHJNj5ysb7TNfm8vKdV1HQnuLWWxRWRmvYFr6Pxha1ag5DbK/AIMeLYS+5PF3PCdc1&#xA;T8/fLXl8fmBreupalrpUby3OoC8GkKhPSA47gVorcuHxcqjNtjhppy8KMb2+pqJkBbIvzZ8/yapp&#xA;2mWQaWy0S40WPzBrUMTFJp4rj4bey9QUKhnDc/EbbZjafBwk1vPi4R5d5ZSlbGr/APLXzDbeW0vb&#xA;iz0V3MX1g+WltCGSJl5cfrYbkJivenXEauHHVz/rX+juXhNdGc/kR5ouJJZvLRnkudKFjDqmgPMe&#xA;csNrI3pSWrueoiegTwG3QDK9ZDbiP1Xwy9/f8UwPR7DmvbHYq7FXYq7FXYq7FXYq7FXYq7FXYq7F&#xA;XYq7FXg35hatJo/5neYPXsbqeC80i1uQ9tEJOMNsJUllarLREL/Ecwe2exsuuxYTiMbxzl9Rr6uH&#xA;yPc5mh1kcJlxX6gOXxTBory1/wCcfPK8kkTCS2l0eZkfY8DfxFOu9DyXOjsHUy/zvudd/CERrk3m&#xA;60/NHzNqOhD69DY6fp8t/wCX5dor22kWZZfTY1CzJw+DbfdT4ZHGIHDES2smj3Hb7FN2VLy5r9p5&#xA;Y0weZ/Khl1L8uLyRm1TR1Ba60WcmsrRx7t6Sk/vIv2ftLVThy4zkPBPbKOR6S/HeoNbjk9bsbjSt&#xA;Tt7XVLNoruGWPnaXicXBRx1R/A5rZAxJB2bEr83+ZLzSNPkXR7SPV/MDKslpon1hIJpo/UVJJF5V&#xA;PGMNUmmWYcQkfUaj3qTSASXy7+XHlWWbUNSu5rNrh5Ee9f6xdPNctyEEQRVLmteK0+nJSMs0uQFD&#xA;3Ch1KAKY+fzwJNY/J+ttGfslkt1JHupm2+WYB1+iH+Xx/M/qcn8pm/mSVk/Oy2KAv5T19X/aCw2j&#xA;D7zcr+rI/wAoaP8A1fH8z+pP5TN/MkitM/Ofy5danbafqGnanobXjiK1uNSgjSB5W+zH6sUsyqzd&#xA;uVK5kYMmLNfhZIZCOYid676NNeTFOH1RITrzpok91Fa6zZ/W59S0Ey3dhplrOtvHdzFKLDOWVqoe&#xA;nUZkYJ1cTVS5nuaZBMvL+txatp0UzenDqCRxjU9PSVJntLl4w728pTo6FqbgZDJDhPl0Pf5pBR0V&#xA;vbwlzFEkZkYvIUULyY9WanU5AklLw3zj5YvfPn57R6Brhuf8J6RaLcxQIGWCWQojMvMUHJmkox68&#xA;RQUzbYcow6fijXHItMhcq6I388vJ7LPFrqWzyaDJpp0fWFtk5PaQo5ltrlI1G6RuxD06CmU6TLY4&#xA;R9YlxDz7wymGHXv5jeZbvy4lnPe6MvGL6s3mRbupaKnHl9WC8jMF7V65IaWHHdT/AKtfp7kcRroz&#xA;r8ivK1zFNP5ja3ltNLFlDpWhRzgpLNbRsZJbqRDuvqyU4V7b03GV6zJtwneRPFL393wTAdXsGYDY&#xA;7FXYq7FXYq7FXYq7FXYq7FXYq7FXYq7FXYq8+/NnyX5U8xyeXDrl39SlTUo7W2IDE3Kz1aSzPHoJ&#xA;RF1PSmZujzzhxcIvb5ebCcQUb+b1rdyfl5fRafZTXs0U9hJHZWkTSyssN/BIwjjQEmiIT8shoyPF&#xA;FmufP3FM+Tznzdqi6/r099fflnf6kiT2ENrPcaZcG4NjUm8DETKnqLU+l+z/ADZnYYcEaGQDn/EO&#xA;fTp82smzyU/L+v8Am/QdPl/w/wDlxc6VPPa3vqiCwKpJcJLWwLh5+fERkiUGpr9io2xyY4TPqyA7&#xA;jr8+igkcgmHlG7896Fr8dxo/lHVIPLOoUbV9Gn+rRx21y28lxYKZuSKzEloiAPA+EMwxzjUpx4xy&#xA;O+/kdvtSLB5PXpdA0a41m212W0VtWtYmgt7o15pHJ9pRvTevhmtGSQiY3sWynn/5vKsnmryVE45R&#xA;iXUJQh6epHbqEanivI0zVduzMezs1bXwD4cQc3s6IOeN+f3MM0qzbWNBn826/wCZr/RdLkvprPTr&#xA;LS7YzlFgdkBl4Q3EjM5jYnbiPpplug9ndJjxxgcUckzAGUpHqRe24AG+y6jtHKZkiRiL6KltL+Xt&#xA;wyKn5k6rH6jBFae0SBQWNByaWzQKKnqdsyz7N6Uf8hof6aX/ABTV/KOb+efs/Ul/5iaTqvl4a55b&#xA;1O/bWtPudGm1PT7uaOOOeJ4ZBH6b+mAr8WZHDUGavJ2VgwajT6jTjwpePGEgCSCJA9/LYEOVj1c8&#xA;mPJCfq9BPyfQOgzyz6Hp08zF5ZbWF5HPUs0YJJ+Zzc5BUj73WhLbw+T/ACXY6tr9wItMt7mX61qd&#xA;z8RMszfCDxHIs7E0CqNzk48eUiI37l2G6SQfmN5l1D95pHkXV57UiqTXj2tgWHisdxKrUPauXHTQ&#xA;j9U4/Cz9zHiPcxm7/MFNF81/4g8waH5m0+8vrePTbHSQIrmwmmLF0WH0pCpnfsD75eNPxQ4YygQN&#xA;76/2MeKjZtkcWp/nTqgW4tdJ0bQLZjtBqc095c8fFltfSjU03pz9soMcEdiZS92w+1lckkl8ueeN&#xA;Jun1m48n+UNXmiJlaaxQ2F38O/L1blJVBp3L5aMuOQ4RPJH37j7EUe4PQvKPmbT/ADR5bsNf08Mt&#xA;rfx+oiPTkpDFHRuJIqrqVOYebEccjE8wzBsWm+VJdirsVdirsVdirsVdirsVdirsVdirsVdirsVY&#xA;D+bP9/5G/wDAqsP+TNxmZo/4/wCof0MJ9PehfOfn/wA5QebLry55RsLG6n0vTP0tqUt+0oDJz4i3&#xA;hEVKSsNwWNMlg08DASmTuaFfespG6COn/NvSIfLXl7VksLu91DzLEH07RrFBNcMyoHmG5ReMNfib&#xA;IDRyM5RsAR5krx7Jcn56aTc3A0vTfL+s3vmOMMb3Q1tvTntQlN52dlQK3IcSpOWfkJAWZREe++aP&#xA;EVP+Vo+cf/Ld6x/wcH9cH5WH+qRTxnuTDX/zZ0Ly5baO+vWl3aXeqxG4mso4/Xls4kA9SS4EZqER&#xA;mC1UH8MpGCyfVGroWa4ieQF9WV+TGPzN1G11Dzd+Xt7YzCexvINVnglWvF0aC3KOK+zbZp/aGJj2&#xA;dmB5iUP905vZp/wiPx+5kP5Gxon5bWDKKGS61FnPifr86/qUZtMh+n+pD/chxJcz7z97EtS1HUtR&#xA;/M2z038wNPu10me/eHytpdu0LWMphJZLu7VZTNKaAHdOCdxuc2MYiOInERdeo9fcGknfdBfn66Hz&#xA;DcoD8a+Vr5ivs1zEB/xE5ptVy0//AENY/wDczczTf5T/AIXL7w9o0GJodC06J6corWFWI6VWMA5f&#xA;kNyPvccPNn1Wy8363N5u1Msfy/8AKcjHSUSN5fr2oRng94I0DM8cJPGKgNWqfEZncBxx4B/eT5+Q&#xA;7v1sLvfoFunvp3nHzFdvp/m/zTpd4QbqCyaE2dolupUfAs1twZfiFOTct670OGV4oi4QI+Z+9Rue&#xA;ZbstbsdZ124/MXV/Wk8raAzaf5WjihkneeZ2EVxfLFEpY82/dx7UoCdsEsZjHwo/XLeX6At3ukUv&#xA;/KvJJmu9bi87IGf1F1a/XVEjXnvVDDQKq7UomXDxeUfD9w4WO3mu/OTzBD5O8kx+TtO1W9vrrWxJ&#xA;LPeX05uLiDTtvUHqEBqP/doDXblvg0WPxcnGQBw93e16jJwR25nkg/8AnFbWvMEsetaK8K/oC0Zb&#xA;qGQ15wz3JFIBU/ZKIWIpsfnk+1oR2l/Ef0LpZWK5voDNM5TsVdirsVdirsVdirsVdirsVdirsVdi&#xA;rsVdirAfzZ/v/I3/AIFVh/yZuMzNH/H/AFD+hhPp70DpsJn/ADu82Qg8TLolmnLrTkzCuTka08P6&#xA;xQPqLF/yy0fzgNf8n6Vqmh3dgvkm31WG91Kdf9FuPrhVIPq0n+7NhvTtmRqpw4ZyEgfE4duu3eiI&#xA;NjyQ+neTPONj+bVveppV0L9tcvL2+8yBgbOfR7mNeFu2/wBtAvFUp8J6V7GWeBw1YrhA4evF3oET&#xA;xPZrvzb5ZtLi/trjU7aO60uA3V/bGRfVihCepzaOvKnDfpmrGGZogc+TbYeBWVrqP5j+dKXSvF+n&#xA;gt3qK1Iaz0C3f/R7UH9mS6fdqHuTTKoyGTOZjfFpjwx/pZj9UvdAbDzciX7vHX8eTc+Ueg+LPfzT&#xA;t4I/O3kiONAkcFtqwhRdlUBLVQAB2Cmmav2ikf5OyecofeW/swfvx7igfyv/ADL8neWvLR8t+Y79&#xA;NI1XTLu8Dw3IdRJHPdSTxyxtx4srLLTr2+WbvBE6jFDJi9cDCPLvEQCPeHDzAwmYy2NlE+TvMn5W&#xA;6ffXHmDVvOVhrHme8qk2pTSLCIYq1FvaxOT6MK17GrHcnMzNizSHDGBjAdP0lpiRzthf5qa/pPmf&#xA;Xdd1XQ5xfaXp/luWwnvowfRa4km9bhG52fii7lds0+vyDHPTYZbZJamMq60ARfzO3e52lgTHJLp4&#xA;ZD0v83f0+Pyf1B9FYrMlpE15wNJDZgD6yENDQ+lWv+TXvmz0fD444u/7ejg5DUXjOmf85IeaNNsb&#xA;XT9Os9DtNNtYkjt7dbe9bgiClOXrKPpzaT7NhIkkyJ+Dh/m5DbhP2frXeaP+cjvMOueWbjQzYWtv&#xA;NqJWCa/s7krSBj+9jCSqzIZF+HmSaV8cGLs2MJ8VnboQy/N2DYIRdj/zkbr2mWltp2maZolnp9pG&#xA;sNvbNPM5REFAOalR0HhkZdmxkSSZElr/AD3dCXyZTov/ADk/bEA67oTpCBVrvTJlulHzicRMB/sj&#xA;mPPss/wy+ezbDXwJo7HzeJecPM+o+cvM91qskbSTajKhgsx8RWKvCztBTqT9pqdTU5tcOIYoAd34&#xA;JcXJM5J7e4fpP6A+uPyy8lReTvJ9no9Q96a3GpTj/dl1LQyNXuBsi/5KjOc1WfxZmXTp7naY4CIo&#xA;MpzHZuxV2KuxV2KuxV2KuxV2KuxV2KuxV2KuxV2KsM/NPQ9d1LStJvNDtxe6hoOrWurJYF1jNwsA&#xA;dHiV3IVWKykivhmVpMkYkiWwlEhjMJb+Xdp5g1Pzj5h85avo8uhxX8NrY6fZXLA3BjtuZkkcL9nk&#xA;xFB/tmzUmMYRxxPFVkojd29FzBZuxV4P51/JXW01PUtXis7bzda31019NbzH6rqUbPSqRTA+nJGq&#xA;rT0zx8AMnqBPLRxZZ4JiPD/OgffHod/qbMWSMdpRExd9x+f6Gf8A5S+UbvRNCm1LVohH5h11xd6k&#xA;n++VApBaj/Jgj2p4k4PDhihHFj+jGKHmesvfI7sZ5DORkeZWfmn5S1zVhpOt6AiXGr6FJMVsJHEa&#xA;3NvcqqzRBzsr/u1ZS222VajTY9TgngyHhjOvV/NI3B/X5M8GY4piY6PP7sebri4SRvK+uRonp8rc&#xA;WtjKnwsTIA7ylqSCi1HhUZy+H2TzY4kCeEk36uPIDuPTsI16efx3dtLtbHI3U/lH9fVj9jbedoLu&#xA;/ludF8w3MFyrizg/Q1qn1dmaqty9U8+I23Arm01Hs8ZwxxgMEJRriPjZTx94+ja+fk48O0IgyJMy&#xA;Dy9EdvtT2Ly95081WTeXotIvtMsrx2XUNW1OGK0EFq7ljHDCrEyvw+AbU7k5V2b7Ofl9THUZZQ9F&#xA;VGBlLikBVkyAoX6vsTqe0hPGYRB36mht8Pk95ks7aSyayeMNbPGYWib4gYyvEqQ1a7eOb0SN26oi&#xA;xTygf84x+Q1jEcWo6zEo+yEuowAPAAxEUzY/ypk7o/L9rjS0eMmyPsH6kh8w/wDOKdlcI36G8wTI&#xA;aCkeowxXDE13/fRCFl/4E5dj7WI+qPyQNJEH07KEP/OLWpmJfV80W8LU3ji0xXQfItOn6sJ7VH80&#xA;/wCm/Y1fyfHqT8yk+uf84webLZWl0y70/VCtTx4yafOfDgVMsdf9Y5bj7UgeYI+1ToiOUj8d/vRf&#xA;5Efk15isPNb6x5n017C00hnbT4JyjNLdMOIk+EsGWFK8W6ciCvQ5HX62JhwwNmXP3NuHCRLilzfR&#xA;+aNy3Yq7FXYq7FXYq7FXYq7FXYq7FXYq7FXYq7FXYq7FXYq7FXYq7FXYq7FXYq7FXYq7FXYq7FXY&#xA;q7FXYq7FXYq7FXYq7FXYq7FXYq7FXYq7FXYq7FXYq7FXYq7FXYq7FXYq7FXYq7FXYq7FXYq7FXYq&#xA;7FXYq7FXYq7FXYq7FXYq7FXYq7FXYq7FXYq7FXYq7FXYq7FXYq7FXYq7FXYq7FXYq7FXYq7FXYq7&#xA;FXYq7FXYq7FXYq7FXYq7FXYq7FXYq7FXYq7FXYq7FXYq7FXYq7FXYq7FXYq7FXYq7FXYq7FXYq7F&#xA;XYq7FXYq7FXYq7FXYq7FXYq7FXYq7FXYq7FXYq7FXYq7FXYq7FXYq7FXYq7FXYq7FXYq7FXYq7FX&#xA;Yq7FXYq7FXYq7FXYq7FXYq7FXYq//9k=</xmpGImg:image>
               </rdf:li>
            </rdf:Alt>
         </xmp:Thumbnails>
         <xmpMM:OriginalDocumentID>uuid:9E3E5C9A8C81DB118734DB58FDDE4BA7</xmpMM:OriginalDocumentID>
         <xmpMM:DocumentID>xmp.did:f1b3eeff-27e6-c544-a399-a3254fedaf1d</xmpMM:DocumentID>
         <xmpMM:InstanceID>xmp.iid:f1b3eeff-27e6-c544-a399-a3254fedaf1d</xmpMM:InstanceID>
         <xmpMM:RenditionClass>proof:pdf</xmpMM:RenditionClass>
         <xmpMM:DerivedFrom rdf:parseType="Resource">
            <stRef:instanceID>xmp.iid:2a3c8086-6a87-b140-bcaf-5579e463c70c</stRef:instanceID>
            <stRef:documentID>xmp.did:2a3c8086-6a87-b140-bcaf-5579e463c70c</stRef:documentID>
            <stRef:originalDocumentID>uuid:9E3E5C9A8C81DB118734DB58FDDE4BA7</stRef:originalDocumentID>
            <stRef:renditionClass>proof:pdf</stRef:renditionClass>
         </xmpMM:DerivedFrom>
         <xmpMM:History>
            <rdf:Seq>
               <rdf:li rdf:parseType="Resource">
                  <stEvt:action>saved</stEvt:action>
                  <stEvt:instanceID>xmp.iid:cacfae4f-8cc8-ce46-90ca-7af7b26a04f9</stEvt:instanceID>
                  <stEvt:when>2019-04-25T12:34:01+10:00</stEvt:when>
                  <stEvt:softwareAgent>Adobe Illustrator CC 22.0 (Windows)</stEvt:softwareAgent>
                  <stEvt:changed>/</stEvt:changed>
               </rdf:li>
               <rdf:li rdf:parseType="Resource">
                  <stEvt:action>saved</stEvt:action>
                  <stEvt:instanceID>xmp.iid:c0068580-ba92-5b4e-84de-8631f20136b8</stEvt:instanceID>
                  <stEvt:when>2019-04-25T16:51:12+10:00</stEvt:when>
                  <stEvt:softwareAgent>Adobe Illustrator CC 22.0 (Windows)</stEvt:softwareAgent>
                  <stEvt:changed>/</stEvt:changed>
               </rdf:li>
               <rdf:li rdf:parseType="Resource">
                  <stEvt:action>converted</stEvt:action>
                  <stEvt:parameters>from application/postscript to application/vnd.adobe.illustrator</stEvt:parameters>
               </rdf:li>
               <rdf:li rdf:parseType="Resource">
                  <stEvt:action>saved</stEvt:action>
                  <stEvt:instanceID>xmp.iid:ef5507f9-bbe4-9047-92e6-f2d08c39b708</stEvt:instanceID>
                  <stEvt:when>2019-04-25T21:49:07+10:00</stEvt:when>
                  <stEvt:softwareAgent>Adobe Illustrator CC 22.0 (Windows)</stEvt:softwareAgent>
                  <stEvt:changed>/</stEvt:changed>
               </rdf:li>
               <rdf:li rdf:parseType="Resource">
                  <stEvt:action>saved</stEvt:action>
                  <stEvt:instanceID>xmp.iid:f1b3eeff-27e6-c544-a399-a3254fedaf1d</stEvt:instanceID>
                  <stEvt:when>2019-07-02T19:13-05:00</stEvt:when>
                  <stEvt:softwareAgent>Adobe Illustrator CC (Windows)</stEvt:softwareAgent>
                  <stEvt:changed>/</stEvt:changed>
               </rdf:li>
            </rdf:Seq>
         </xmpMM:History>
         <illustrator:StartupProfile>Basic RGB</illustrator:StartupProfile>
         <xmpTPg:NPages>1</xmpTPg:NPages>
         <xmpTPg:HasVisibleTransparency>True</xmpTPg:HasVisibleTransparency>
         <xmpTPg:HasVisibleOverprint>False</xmpTPg:HasVisibleOverprint>
         <xmpTPg:MaxPageSize rdf:parseType="Resource">
            <stDim:w>619.324689</stDim:w>
            <stDim:h>310.066973</stDim:h>
            <stDim:unit>Pixels</stDim:unit>
         </xmpTPg:MaxPageSize>
         <xmpTPg:PlateNames>
            <rdf:Seq>
               <rdf:li>Cyan</rdf:li>
               <rdf:li>Magenta</rdf:li>
               <rdf:li>Yellow</rdf:li>
               <rdf:li>Black</rdf:li>
            </rdf:Seq>
         </xmpTPg:PlateNames>
         <xmpTPg:SwatchGroups>
            <rdf:Seq>
               <rdf:li rdf:parseType="Resource">
                  <xmpG:groupName>Default Swatch Group</xmpG:groupName>
                  <xmpG:groupType>0</xmpG:groupType>
                  <xmpG:Colorants>
                     <rdf:Seq>
                        <rdf:li rdf:parseType="Resource">
                           <xmpG:swatchName>R=255 G=255 B=255</xmpG:swatchName>
                           <xmpG:mode>RGB</xmpG:mode>
                           <xmpG:type>PROCESS</xmpG:type>
                           <xmpG:red>255</xmpG:red>
                           <xmpG:green>255</xmpG:green>
                           <xmpG:blue>255</xmpG:blue>
                        </rdf:li>
                        <rdf:li rdf:parseType="Resource">
                           <xmpG:swatchName>R=200 G=203 B=192</xmpG:swatchName>
                           <xmpG:type>PROCESS</xmpG:type>
                           <xmpG:tint>100.000000</xmpG:tint>
                           <xmpG:mode>RGB</xmpG:mode>
                           <xmpG:red>200</xmpG:red>
                           <xmpG:green>202</xmpG:green>
                           <xmpG:blue>191</xmpG:blue>
                        </rdf:li>
                        <rdf:li rdf:parseType="Resource">
                           <xmpG:swatchName>R=255 G=184 B=23</xmpG:swatchName>
                           <xmpG:type>PROCESS</xmpG:type>
                           <xmpG:tint>100.000000</xmpG:tint>
                           <xmpG:mode>RGB</xmpG:mode>
                           <xmpG:red>255</xmpG:red>
                           <xmpG:green>184</xmpG:green>
                           <xmpG:blue>22</xmpG:blue>
                        </rdf:li>
                        <rdf:li rdf:parseType="Resource">
                           <xmpG:swatchName>R=41 G=171 B=226</xmpG:swatchName>
                           <xmpG:type>PROCESS</xmpG:type>
                           <xmpG:tint>100.000000</xmpG:tint>
                           <xmpG:mode>RGB</xmpG:mode>
                           <xmpG:red>40</xmpG:red>
                           <xmpG:green>170</xmpG:green>
                           <xmpG:blue>226</xmpG:blue>
                        </rdf:li>
                        <rdf:li rdf:parseType="Resource">
                           <xmpG:swatchName>R=25 G=33 B=127</xmpG:swatchName>
                           <xmpG:type>PROCESS</xmpG:type>
                           <xmpG:tint>100.000000</xmpG:tint>
                           <xmpG:mode>RGB</xmpG:mode>
                           <xmpG:red>24</xmpG:red>
                           <xmpG:green>33</xmpG:green>
                           <xmpG:blue>126</xmpG:blue>
                        </rdf:li>
                        <rdf:li rdf:parseType="Resource">
                           <xmpG:swatchName>R=0 G=0 B=0</xmpG:swatchName>
                           <xmpG:mode>RGB</xmpG:mode>
                           <xmpG:type>PROCESS</xmpG:type>
                           <xmpG:red>0</xmpG:red>
                           <xmpG:green>0</xmpG:green>
                           <xmpG:blue>0</xmpG:blue>
                        </rdf:li>
                     </rdf:Seq>
                  </xmpG:Colorants>
               </rdf:li>
            </rdf:Seq>
         </xmpTPg:SwatchGroups>
         <pdf:Producer>Adobe PDF library 15.00</pdf:Producer>
      </rdf:Description>
   </rdf:RDF>
</x:xmpmeta>
                                                                                                    
                                                                                                    
                                                                                                    
                                                                                                    
                                                                                                    
                                                                                                    
                                                                                                    
                                                                                                    
                                                                                                    
                                                                                                    
                                                                                                    
                                                                                                    
                                                                                                    
                                                                                                    
                                                                                                    
                                                                                                    
                                                                                                    
                                                                                                    
                                                                                                    
                                                                                                    
                           
<?xpacket end="w"?>
	</metadata>
<g>
	<g>
		<defs>
			<path id="SVGID_1_" d="M585.902-42.18H47.719c-16.903,0-30.606,13.703-30.606,30.606v338.384
				c0,16.903,13.703,30.606,30.606,30.606l538.182,0c16.903,0,30.606-13.703,30.606-30.606V-11.573
				C616.508-28.477,602.805-42.18,585.902-42.18z"/>
		</defs>
		<clipPath id="SVGID_2_">
			<use xlink:href="#SVGID_1_"  overflow="visible"/>
		</clipPath>
	</g>
	<g>
		<defs>
			<path id="SVGID_3_" d="M585.902-42.18H47.719c-16.903,0-30.606,13.703-30.606,30.606v338.384
				c0,16.903,13.703,30.606,30.606,30.606l538.182,0c16.903,0,30.606-13.703,30.606-30.606V-11.573
				C616.508-28.477,602.805-42.18,585.902-42.18z"/>
		</defs>
		<clipPath id="SVGID_4_">
			<use xlink:href="#SVGID_3_"  overflow="visible"/>
		</clipPath>
		<g clip-path="url(#SVGID_4_)">
			<g>
				<g>
					<g>
						<g>
							<g>
								<path fill="#FFB817" d="M443.013,267.643l-30.716-0.23c-9.671-0.073-17.472-3.397-17.379-17.641l0.331-44.201
									c0.092-14.101,7.971-17.452,17.641-17.379l30.716,0.23c9.671,0.073,17.467,4.155,17.379,17.641l-0.331,44.201
									C460.564,264.192,452.684,267.715,443.013,267.643z"/>
								<path fill="#19217F" d="M397.516,264.614c-2.651-2.686-4.277-6.38-4.247-10.441l0.398-53.028
									c0.061-8.113,6.71-14.664,14.824-14.604l39.543,0.298c3.925,0.029,7.605,1.584,10.362,4.377
									c0.004,0.004,0.007,0.007,0.01,0.01c2.758,2.8,4.261,6.506,4.232,10.436l-0.398,53.028
									c-0.029,3.93-1.588,7.613-4.388,10.371c-2.799,2.758-6.506,4.261-10.436,4.231l-39.542-0.296
									C403.821,268.966,400.159,267.292,397.516,264.614z M456.093,193.487c-2.151-2.18-5.022-3.392-8.084-3.415l-39.543-0.298
									c-6.33-0.047-11.518,5.065-11.565,11.395l-0.398,53.028c-0.047,6.328,5.062,11.519,11.394,11.566l39.542,0.296
									c3.066,0.023,5.958-1.15,8.142-3.302c2.185-2.152,3.4-5.026,3.423-8.092l0.398-53.028c0.023-3.066-1.15-5.958-3.302-8.142
									C456.098,193.493,456.095,193.49,456.093,193.487z"/>
							</g>
							<g>
								<path fill="#FFFFFF" d="M437.995,251.722l-17.938-0.134c-7.855-0.059-14.174-6.474-14.116-14.329l0.174-23.172
									c0.059-7.855,6.474-14.174,14.328-14.116l17.938,0.134c7.855,0.059,14.174,6.474,14.116,14.328l-0.173,23.172
									C452.265,245.461,445.85,251.781,437.995,251.722z"/>
								<path fill="#19217F" d="M407.107,250.242c-0.002-0.002-0.004-0.004-0.007-0.007c-1.839-1.866-2.84-4.338-2.82-6.958
									l0.264-35.232c0.04-5.408,4.474-9.776,9.882-9.736l29.998,0.225c5.408,0.042,9.776,4.475,9.736,9.883l-0.264,35.232
									c-0.02,2.62-1.058,5.075-2.925,6.914c-1.866,1.839-4.338,2.84-6.958,2.82l-29.998-0.224
									C411.398,253.14,408.945,252.104,407.107,250.242z M449.027,203.726c-1.182-1.197-2.818-1.945-4.628-1.959l-29.998-0.224
									c-1.757-0.013-3.413,0.658-4.665,1.891c-1.25,1.233-1.947,2.878-1.96,4.635l-0.264,35.232
									c-0.013,1.756,0.658,3.412,1.891,4.664c0.002,0.002,0.003,0.003,0.005,0.005c1.232,1.248,2.876,1.943,4.63,1.956
									l29.998,0.224c3.625,0.027,6.597-2.901,6.625-6.526l0.264-35.232C450.939,206.578,450.212,204.926,449.027,203.726z"/>
							</g>
							<g>
								<g>
									<circle fill="#19217F" cx="411.908" cy="259.938" r="1.76"/>
								</g>
								<g>
									<circle fill="#19217F" cx="446.018" cy="260.193" r="1.76"/>
								</g>
								<g>
									<circle fill="#19217F" cx="440.604" cy="260.152" r="1.76"/>
								</g>
								<g>
									<circle fill="#19217F" cx="417.864" cy="259.982" r="1.76"/>
								</g>
								<g>
									<path fill="#19217F" d="M432.329,262.527l-6.226-0.047c-1.346-0.01-2.428-1.109-2.418-2.455l0,0
										c0.01-1.346,1.109-2.428,2.455-2.418l6.226,0.047c1.346,0.01,2.428,1.109,2.418,2.455l0,0
										C434.773,261.454,433.674,262.537,432.329,262.527z"/>
								</g>
							</g>
							<g>
								<path fill="#19217F" d="M422.898,243.294c-0.021-0.022-0.043-0.044-0.063-0.067c-0.59-0.67-0.526-1.692,0.144-2.282
									l12.858-11.333c0.037-0.033,0.124-0.109,0.067-0.264c-0.056-0.154-0.171-0.157-0.221-0.159l-8.443-0.213
									c-1.348-0.035-2.486-0.885-2.9-2.169c-0.414-1.284,0.012-2.64,1.086-3.455l13.017-9.885
									c0.048-0.036,0.174-0.131,0.107-0.339c-0.067-0.21-0.225-0.212-0.285-0.213l-21.633-0.547
									c-0.892-0.023-1.598-0.763-1.576-1.657c0.022-0.893,0.765-1.598,1.657-1.576l21.633,0.547c1.524,0.04,2.813,1,3.281,2.453
									c0.469,1.451-0.014,2.985-1.228,3.908l-12.784,9.708l8.15,0.206c1.44,0.037,2.687,0.935,3.179,2.287
									c0.492,1.353,0.112,2.843-0.969,3.795l-12.858,11.333C424.47,243.941,423.496,243.9,422.898,243.294z"/>
							</g>
						</g>
						<g>
							<g>
								<g>
									<polygon fill="#FFFFFF" points="273.296,188.721 286.229,188.482 281.861,197.134 276.853,197.389 									"/>
								</g>
								<g>
									<polygon fill="#FFB817" points="272.576,141.188 285.024,140.958 286.229,188.482 273.296,188.721 									"/>
								</g>
								<g>
									<g>
										
											<rect x="277.247" y="195.56" transform="matrix(-0.9998 0.0185 -0.0185 -0.9998 562.9467 389.1378)" fill="#19217F" width="4.848" height="3.233"/>
									</g>
									<g>
										
											<rect x="273.072" y="187.516" transform="matrix(-0.9998 0.0185 -0.0185 -0.9998 561.8239 373.0674)" fill="#19217F" width="12.229" height="3.233"/>
									</g>
									<g>
										<g>
											<path fill="#19217F" d="M270.808,139.539l16.252-0.301l0.93,50.144l-8.184,15.688l-8.069-15.418L270.808,139.539z
												 M283.888,142.531l-9.786,0.181l0.856,46.117l4.845,9.258l4.939-9.47L283.888,142.531z"/>
										</g>
									</g>
									<g>
										
											<rect x="271.538" y="147.532" transform="matrix(-0.9998 0.0185 -0.0185 -0.9998 560.6498 293.1161)" fill="#19217F" width="14.864" height="3.234"/>
									</g>
								</g>
							</g>
							<g>
								<path fill="#19217F" d="M281.28,209.902h-3.881v47.582c0,5.018,1.776,7.821,3.265,9.288
									c1.686,1.661,3.931,2.536,6.278,2.521c3.708-0.056,6.446-3.036,7.515-5.965c0.858-2.352,0.814-4.733,0.772-7.038
									c-0.008-0.472-0.017-0.944-0.017-1.413v-18.956c0-0.254-0.007-0.57-0.016-0.935c-0.05-2.119-0.167-7.082,1.645-8.937
									c0.471-0.482,1.055-0.706,1.838-0.706c3.62,0,4.495,1.947,5.086,6.309c0.362,2.674,0.4,5.186,0.441,7.845
									c0.016,1.042,0.032,2.099,0.068,3.187c0.125,3.824,2.823,6.391,5.441,7.238c2.538,0.822,5.033,0.148,6.506-1.757
									c2.371-3.066,2.134-6.725,1.923-9.954c-0.135-2.084-0.263-4.053,0.272-5.673c0.807-2.441,4.285-3.418,6.862-2.664
									c1.63,0.479,3.092,1.436,4.438,2.626c-0.339,0.501-0.676,1.033-1.017,1.6c-2.182,3.635-2.906,7.003-2.153,10.014
									c0.544,2.171,2.069,4.104,4.08,5.169c1.695,0.9,3.542,1.061,5.201,0.454c3.589-1.311,4.911-5.43,4.332-8.64
									c-0.553-3.074-2.454-5.546-4.193-7.621c-0.354-0.422-0.714-0.843-1.083-1.258c2.063-2.076,4.38-2.784,8.308-2.955
									c7.288-0.316,20.928-0.006,21.212,0h1.94l0.088-3.877h-1.94c-1.165-0.027-14.055-0.321-21.47,0
									c-4.929,0.215-8.113,1.31-10.87,4.087c-1.683-1.467-3.571-2.671-5.781-3.321c-4.373-1.286-10.094,0.485-11.642,5.169
									c-0.772,2.337-0.613,4.78-0.46,7.142c0.189,2.91,0.352,5.424-1.12,7.328c-0.65,0.841-1.785,0.587-2.242,0.44
									c-1.326-0.429-2.694-1.732-2.758-3.673c-0.035-1.066-0.051-2.099-0.066-3.12c-0.042-2.778-0.083-5.403-0.476-8.306
									c-0.425-3.139-1.31-9.669-8.932-9.669c-1.82,0-3.416,0.649-4.614,1.875c-2.954,3.024-2.82,8.693-2.748,11.74
									c0.008,0.33,0.014,0.615,0.014,0.844v18.956c0,0.493,0.009,0.988,0.018,1.484c0.037,2.038,0.072,3.964-0.538,5.637
									c-0.612,1.676-2.158,3.388-3.928,3.414c-0.743,0.034-2.228-0.155-3.496-1.405c-1.379-1.359-2.108-3.614-2.108-6.523V209.902
									z M333.78,246.217c-0.516,0-0.987-0.179-1.334-0.363c-1.023-0.543-1.86-1.596-2.132-2.683
									c-0.494-1.974,0.083-4.354,1.716-7.073c0.152-0.254,0.303-0.499,0.452-0.735c0.172,0.2,0.343,0.402,0.513,0.604
									c1.418,1.693,2.963,3.678,3.349,5.817c0.296,1.647-0.375,3.77-1.846,4.308C334.254,246.181,334.012,246.217,333.78,246.217z
									"/>
							</g>
							<g>
								<g>
									<path fill="#FFFFFF" d="M300.66,152.648l0.653,56.49l58.202-1.129L300.66,152.648z M312.607,179.934l17.262,16.36
										l-16.822,0.02L312.607,179.934z"/>
								</g>
								<g>
									<path fill="#19217F" d="M363.718,209.081l-63.708,1.709l-1.71-63.709L363.718,209.081z M303.156,207.471l52.671-1.413
										l-54.085-51.259L303.156,207.471z"/>
								</g>
								<g>
									<path fill="#19217F" d="M334.964,196.952l-23.703,0.636l-0.637-23.703L334.964,196.952z M314.407,194.269l12.665-0.339
										l-13.006-12.327L314.407,194.269z"/>
								</g>
								<g>
									
										<rect x="338.685" y="203.656" transform="matrix(-0.0268 -0.9996 0.9996 -0.0268 146.8937 553.5478)" fill="#19217F" width="8.408" height="3.234"/>
								</g>
								<g>
									
										<rect x="330.926" y="203.864" transform="matrix(-0.0268 -0.9996 0.9996 -0.0268 138.719 546.0053)" fill="#19217F" width="8.408" height="3.234"/>
								</g>
								<g>
									
										<rect x="323.167" y="204.072" transform="matrix(-0.0268 -0.9996 0.9996 -0.0268 130.5442 538.4628)" fill="#19217F" width="8.408" height="3.234"/>
								</g>
								<g>
									
										<rect x="315.408" y="204.28" transform="matrix(-0.0268 -0.9996 0.9996 -0.0268 122.3512 530.9097)" fill="#19217F" width="8.408" height="3.234"/>
								</g>
								<g>
									
										<rect x="307.649" y="204.488" transform="matrix(-0.0268 -0.9996 0.9996 -0.0268 114.1939 523.3781)" fill="#19217F" width="8.408" height="3.234"/>
								</g>
							</g>
							<g>
								<g>
									<polygon fill="#FFB817" points="347.696,259.501 351.765,251.643 360.956,256.112 377.427,227.525 383.805,231.416 
										363.818,267.266 									"/>
								</g>
								<g>
									<path fill="#19217F" d="M364.302,269.293l-19.112-9.089l5.445-10.421l9.131,4.421l16.318-28.605l9.983,5.36
										L364.302,269.293z M349.611,258.726l13.363,6.355l18.646-32.839l-4.289-2.303l-16.254,28.493l-9.029-4.371L349.611,258.726
										z"/>
								</g>
							</g>
						</g>
						<g>
							<polygon opacity="0.3"  a:adobe-blending-mode="multiply" points="585.398,92.884 586.353,99.627 589.689,101.231 
								588.865,105.808 549.767,135.635 545.019,135.395 529.02,128.08 509.172,117.87 505.661,110.764 507.391,105.849 
								516.126,107.47 526.987,112.404 545.935,122.224 							"/>
							<polygon fill="#FFB817" points="580.498,82.712 554.806,70.803 549.111,72.949 523.565,93.661 510.476,103.798 
								516.126,107.47 526.987,112.404 540.577,120.159 545.935,122.224 554.305,116.546 574.912,100.609 585.398,92.884 
								587.587,89.718 587.073,85.385 							"/>
							<polygon fill="#19217F" points="547.388,131.061 588.709,100.497 587.301,92.784 584.119,93.365 585.166,99.096 
								547.023,127.31 507.009,108.353 505.625,111.275 							"/>
							<path fill="#19217F" d="M547.807,137.641c1.456-0.05,2.879-0.533,4.074-1.419l36.73-27.261
								c2.163-1.606,3.272-4.138,2.966-6.774c-0.295-2.539-1.879-4.663-4.239-5.682c-0.819-0.353-1.771,0.024-2.125,0.843
								c-0.354,0.82,0.024,1.771,0.843,2.125c1.306,0.564,2.147,1.689,2.309,3.086c0.171,1.474-0.457,2.897-1.681,3.805
								l-36.73,27.261c-1.154,0.856-2.691,1.034-4.01,0.465c-0.224-0.108-27.959-13.371-29.766-14.255l-0.207-0.102
								c-3.574-1.748-8.022-3.924-8.596-7.067c-0.406-2.225-0.296-3.848,0.305-4.652l0.632-0.492c1.289-0.552,3.8,0.076,5.79,1.066
								c4.828,2.404,9.236,4.533,13.499,6.591c4.251,2.053,8.266,3.991,12.243,5.986c1.145,0.574,4.121,1.857,7.03,1.364
								c2.124-0.36,3.719-1.579,5.408-2.869l0.493-0.376l33.201-24.784c2.109-1.565,3.19-4.061,2.887-6.675
								c-0.303-2.614-1.926-4.798-4.341-5.841l-27.373-11.822c-2.374-1.026-5.141-0.705-7.219,0.837l-43.354,33.776
								c-0.186,0.104-0.367,0.221-0.542,0.353c-1.939,1.457-2.557,4.189-1.84,8.119c0.867,4.751,6.129,7.324,10.357,9.392l0.206,0.1
								c1.82,0.891,28.706,13.748,29.85,14.294C545.638,137.479,546.732,137.677,547.807,137.641z M554.119,72.802
								c0.59-0.02,1.187,0.086,1.747,0.328l27.373,11.822c1.341,0.579,2.243,1.792,2.411,3.244c0.168,1.452-0.432,2.838-1.605,3.709
								l-33.727,25.185c-1.421,1.087-2.648,2.024-3.984,2.251c-1.342,0.224-3.274-0.182-5.04-1.067
								c-3.998-2.005-8.024-3.949-12.286-6.007c-4.254-2.054-8.653-4.178-13.464-6.574c-0.609-0.303-1.842-0.864-3.296-1.238
								l39.639-30.882C552.534,73.092,553.318,72.829,554.119,72.802z"/>
							
								<rect x="545.783" y="121.789" transform="matrix(-0.99 0.1411 -0.1411 -0.99 1107.489 178.933)" fill="#19217F" width="3.234" height="13.892"/>
						</g>
						<g>
							<g>
								<polygon fill="#29ABE2" points="560.077,249.595 547.42,245.819 531.957,243.982 514.911,246.412 499.651,243.201 
									478.819,244 477.41,246.073 482.45,257.878 515.439,261.152 524.963,259.865 553.673,263.17 566.221,266.475 
									589.929,228.095 583.002,212.228 562.979,244.78 								"/>
								<polygon fill="#29ABE2" points="560.077,249.595 547.42,245.819 531.957,243.982 514.911,246.412 499.651,243.201 
									478.819,244 477.41,246.073 482.45,257.878 515.439,261.152 524.963,259.865 553.673,263.17 566.221,266.475 
									589.929,228.095 583.002,212.228 562.979,244.78 								"/>
								<polygon opacity="0.3"  a:adobe-blending-mode="multiply" points="560.077,249.595 547.42,245.819 531.957,243.982 
									514.911,246.412 499.651,243.201 478.819,244 477.41,246.073 482.45,257.878 515.439,261.152 524.963,259.865 
									553.673,263.17 566.221,266.475 589.929,228.095 583.002,212.228 562.979,244.78 								"/>
								<g>
									<polygon fill="#FFFFFF" points="582.496,207.28 566.871,203.188 548.526,204.352 535.453,209.518 518.782,206.635 
										500.067,210.015 493.623,218.105 475.516,244.704 489.738,242.929 511.578,245.216 521.931,245.305 540.458,244.581 
										560.077,249.595 568.983,236.872 579.992,215.54 									"/>
								</g>
								<g>
									
										<rect x="515.134" y="245.196" transform="matrix(-0.9322 0.3619 -0.3619 -0.9322 1090.3424 302.4371)" fill="#19217F" width="3.428" height="16.265"/>
								</g>
								<g>
									<path fill="#19217F" d="M565.519,269.282c1.623,0.116,3.219-0.716,4.029-2.249l21.698-41.078
										c0.488-0.925,0.509-1.996,0.057-2.938c-0.453-0.943-1.301-1.597-2.327-1.795l-2.895-0.558
										c-0.923-0.173-1.828,0.429-2.007,1.359c-0.179,0.929,0.43,1.828,1.359,2.007l2.68,0.516l-21.596,40.885
										c-0.204,0.388-0.678,0.538-1.075,0.342c-20.398-10.036-41.562-6.09-45.598-5.197c-0.121,0.027-0.236-0.001-0.309-0.027
										c-19.249-7.084-36.434-4.256-37.156-4.133c-0.933,0.16-1.559,1.045-1.399,1.977c0.159,0.932,1.045,1.559,1.977,1.402
										c0.169-0.029,17.042-2.785,35.395,3.971c0.723,0.265,1.494,0.32,2.231,0.158c3.841-0.851,23.976-4.605,43.345,4.925
										C564.443,269.103,564.983,269.244,565.519,269.282z"/>
								</g>
								<g>
									<path fill="#19217F" d="M542.581,220.419c0.199,0.014,0.404-0.007,0.607-0.066c3.528-1.042,7.184-1.546,10.866-1.5
										c3.691,0.048,7.347,0.647,10.862,1.785c0.902,0.291,1.867-0.203,2.158-1.103c0.291-0.901-0.202-1.867-1.103-2.158
										c-3.842-1.244-7.837-1.901-11.874-1.952c-4.026-0.051-8.022,0.502-11.88,1.64c-0.908,0.268-1.426,1.221-1.159,2.129
										C541.267,219.899,541.888,220.37,542.581,220.419z"/>
								</g>
								<g>
									<path fill="#19217F" d="M536.479,232.235c0.199,0.014,0.404-0.007,0.606-0.066c3.53-1.041,7.186-1.546,10.866-1.499
										c3.691,0.048,7.346,0.647,10.862,1.785c0.902,0.291,1.867-0.202,2.158-1.103c0.291-0.9-0.202-1.867-1.103-2.158
										c-3.841-1.244-7.834-1.9-11.874-1.952c-4.024-0.05-8.02,0.501-11.879,1.64c-0.908,0.268-1.427,1.221-1.159,2.129
										C535.165,231.715,535.787,232.186,536.479,232.235z"/>
								</g>
								<g>
									<path fill="#19217F" d="M505.989,221.546c0.199,0.014,0.403-0.007,0.606-0.066c2.049-0.604,4.17-0.896,6.303-0.869
										c2.141,0.024,4.26,0.375,6.3,1.035c0.902,0.291,1.867-0.203,2.158-1.103c0.291-0.901-0.202-1.867-1.103-2.158
										c-2.369-0.767-4.829-1.172-7.313-1.202c-2.476-0.031-4.937,0.308-7.316,1.009c-0.908,0.267-1.427,1.22-1.159,2.129
										C504.674,221.026,505.297,221.497,505.989,221.546z"/>
								</g>
								<g>
									<path fill="#19217F" d="M498.666,232.208c0.199,0.014,0.404-0.007,0.606-0.066c2.048-0.604,4.169-0.896,6.303-0.87
										c2.145,0.027,4.262,0.375,6.299,1.035c0.898,0.289,1.867-0.202,2.159-1.102c0.292-0.9-0.201-1.867-1.102-2.159
										c-2.363-0.766-4.822-1.17-7.313-1.203c-2.478-0.031-4.939,0.31-7.316,1.01c-0.908,0.268-1.427,1.221-1.159,2.129
										C497.351,231.688,497.974,232.159,498.666,232.208z"/>
								</g>
								<g>
									
										<rect x="583.623" y="210.811" transform="matrix(-0.9236 0.3833 -0.3833 -0.9236 1210.1072 197.9054)" fill="#19217F" width="3.428" height="17.403"/>
								</g>
								<g>
									
										<rect x="479.806" y="243.458" transform="matrix(-0.9236 0.3833 -0.3833 -0.9236 1022.3979 297.9)" fill="#19217F" width="3.428" height="14.703"/>
								</g>
								<g>
									<path fill="#19217F" d="M514.115,248.208c0.271,0.019,0.542-0.027,0.79-0.131c0.236,0.016,0.478-0.017,0.713-0.104l0,0
										c0.201-0.074,20.312-7.324,40.992,2.305c2.578,1.201,5.688,0.185,7.081-2.311l19.344-34.627
										c0.865-1.55,0.986-3.384,0.33-5.031c-0.656-1.65-2.005-2.902-3.702-3.435c-9.905-3.113-28.751-6.758-43.683,3.792
										l-0.283,0.199l-0.183,0.293l-22.732,36.431c-0.501,0.803-0.257,1.861,0.547,2.361
										C513.576,248.106,513.845,248.189,514.115,248.208z M563.597,205.209c5.869,0.416,11.174,1.722,15.039,2.937
										c0.708,0.223,1.271,0.745,1.545,1.432c0.272,0.685,0.222,1.447-0.138,2.092l-19.344,34.627
										c-0.523,0.937-1.683,1.324-2.641,0.875c-16.904-7.871-33.055-5.269-40.042-3.489l20.224-32.411
										C546.198,205.772,555.441,204.63,563.597,205.209z"/>
								</g>
								<g>
									<path fill="#19217F" d="M477.817,245.899c0.238,0.017,0.481,0.005,0.723-0.037c6.126-1.053,21.629-2.993,33.229,1.713
										l1.588,0.644l1.288-3.176l-1.588-0.644c-11.797-4.786-27.064-3.201-34.062-2.087l20.478-28.592
										c0.548-0.764,1.252-1.381,2.037-1.784c14.145-7.261,33.877-0.239,34.075-0.167l1.611,0.585l1.17-3.222l-1.611-0.585
										c-0.864-0.314-21.349-7.596-36.81,0.339c-1.267,0.65-2.393,1.632-3.257,2.837l-21.085,29.439
										c-0.711,0.993-0.752,2.303-0.103,3.338C476.015,245.325,476.879,245.832,477.817,245.899z"/>
								</g>
								<g>
									
										<rect x="561.649" y="247.226" transform="matrix(-0.9236 0.3833 -0.3833 -0.9236 1182.4052 279.4119)" fill="#19217F" width="3.428" height="20.579"/>
								</g>
								<g>
									<path fill="#19217F" d="M564.624,261.128l22.562-40.363l-2.992-1.673l-21.071,37.695
										c-5.859-2.283-28.083-10.045-45.873-4.035c-0.193,0.066-0.39,0.07-0.567,0.013c-4.478-1.435-20.195-5.906-34.389-3.163
										l-1.683,0.325l0.65,3.366l1.683-0.325c13.74-2.655,29.644,2.085,32.692,3.061c0.881,0.282,1.818,0.272,2.711-0.03
										c19.003-6.419,44.6,4.408,44.857,4.519L564.624,261.128z"/>
								</g>
							</g>
							<g>
								<g>
									<path opacity="0.3"  a:adobe-blending-mode="multiply" d="M572.256,153.86l4.733-21.786c0.634-2.92,3.673-4.633,6.5-3.665
										l2.219,0.76c2.793,0.956,4.152,4.113,2.927,6.799l-9.201,20.17L572.256,153.86z"/>
								</g>
								<g opacity="0.3"  a:adobe-blending-mode="multiply">
									<circle  a:adobe-blending-mode="normal" cx="570.046" cy="174.132" r="20.315"/>
								</g>
								<g>
									<circle fill="#C8CBC0" cx="569.154" cy="174.315" r="12.2"/>
								</g>
								<g>
									<path fill="#FFFFFF" d="M571.121,166.832l-0.389,2.558c-2.603-0.397-5.044,1.399-5.44,4.002
										c-0.398,2.603,1.399,5.044,4.002,5.44l-0.389,2.558c-4.013-0.611-6.781-4.373-6.171-8.387
										C563.345,168.989,567.108,166.221,571.121,166.832z"/>
								</g>
								<g>
									<path fill="#19217F" d="M581.8,168.478c0.019,0.039,0.038,0.078,0.057,0.118c3.186,6.652,0.368,14.655-6.282,17.842
										c-6.612,3.168-14.561,0.402-17.785-6.166c-0.019-0.039-0.038-0.078-0.056-0.117c-1.544-3.222-1.741-6.852-0.554-10.222
										c1.187-3.37,3.614-6.076,6.836-7.619c3.222-1.544,6.852-1.741,10.222-0.554C577.566,162.931,580.247,165.315,581.8,168.478
										z M560.692,178.846c2.445,4.98,8.471,7.077,13.485,4.675c5.043-2.416,7.18-8.485,4.764-13.528
										c-0.014-0.03-0.029-0.06-0.043-0.089c-1.177-2.398-3.21-4.205-5.734-5.094c-2.556-0.9-5.308-0.75-7.75,0.42
										c-5.044,2.416-7.181,8.485-4.764,13.528C560.663,178.787,560.678,178.817,560.692,178.846z"/>
								</g>
								<g>
									<path fill="#19217F" d="M589.381,164.753c0.031,0.064,0.062,0.128,0.093,0.193c2.519,5.257,2.839,11.179,0.903,16.677
										c-1.936,5.498-5.897,9.912-11.153,12.431c-10.85,5.199-23.911,0.627-29.108-10.25c-2.519-5.256-2.839-11.179-0.903-16.677
										c1.936-5.498,5.898-9.912,11.154-12.431c5.257-2.519,11.179-2.84,16.677-0.904
										C582.473,155.705,586.848,159.593,589.381,164.753z M553.111,182.568c4.481,9.127,15.527,12.972,24.715,8.569
										c4.478-2.145,7.852-5.906,9.501-10.589c1.648-4.683,1.376-9.727-0.77-14.205c-0.026-0.055-0.053-0.111-0.08-0.165
										c-2.158-4.396-5.883-7.707-10.509-9.336c-4.683-1.649-9.727-1.376-14.205,0.77l0,0c-4.478,2.145-7.852,5.906-9.501,10.589
										c-1.649,4.683-1.376,9.728,0.769,14.205C553.058,182.46,553.085,182.515,553.111,182.568z"/>
								</g>
								<g>
									<path fill="#19217F" d="M589.209,130.55c0.016,0.032,0.031,0.063,0.046,0.095c0.81,1.718,0.862,3.711,0.141,5.469
										l-9.032,22.015l-10.012-3.177l5.241-23.19c0.416-1.839,1.59-3.435,3.222-4.378c1.632-0.944,3.601-1.165,5.402-0.608
										l0.909,0.281C586.905,127.609,588.388,128.878,589.209,130.55z M578.502,154.146l7.901-19.259
										c0.383-0.933,0.357-1.95-0.074-2.862c-0.008-0.018-0.017-0.035-0.025-0.052c-0.435-0.886-1.192-1.533-2.137-1.825
										l-0.909-0.281c-0.956-0.296-1.96-0.183-2.826,0.318c-0.867,0.501-1.466,1.315-1.686,2.291l-4.586,20.294L578.502,154.146z"
										/>
								</g>
							</g>
							<g>
								<g>
									<path fill="#19217F" d="M526.704,192.681l0.12-7.595c0.058-3.999,2.389-7.687,6.086-9.619
										c1.898-0.992,3.046-2.94,2.996-5.084c-0.067-2.842-2.431-5.275-5.271-5.424c-1.521-0.067-2.991,0.451-4.107,1.494
										c-1.117,1.045-1.744,2.462-1.766,3.99l-6.601-0.094c0.048-3.34,1.418-6.436,3.858-8.718
										c2.438-2.28,5.609-3.441,8.962-3.265c6.314,0.33,11.376,5.541,11.524,11.861c0.11,4.676-2.395,8.926-6.537,11.091
										c-1.569,0.82-2.52,2.266-2.543,3.868l-0.12,7.6L526.704,192.681z"/>
								</g>
								<g>
									<circle fill="#19217F" cx="530.209" cy="198.908" r="3.637"/>
								</g>
							</g>
						</g>
						<g>
							<g>
								<g>
									<polygon fill="#FFB817" points="435.256,25.328 372.083,25.59 403.82,51.389 410.194,47.781 425.937,54.312 
										427.586,35.052 									"/>
								</g>
								<g>
									<polygon opacity="0.3"  a:adobe-blending-mode="multiply" points="400.725,30.928 427.187,34.802 426.589,51.037 
										422.644,53.691 410.463,47.223 420.96,38.37 399.272,32.999 									"/>
								</g>
								<g>
									<g>
										
											<rect x="371.794" y="28.538" transform="matrix(0.986 0.1666 -0.1666 0.986 10.6123 -66.1769)" fill="#19217F" width="55.783" height="3.233"/>
									</g>
									<g>
										<path fill="#19217F" d="M428.198,57.336l-17.665-8.072l-5.614,4.726l-37.301-30.088l72.986-0.195l-11.818,11.783
											L428.198,57.336z M413.27,46.959l11.827,5.405l0.492-18.251l7.171-7.15l-56.011,0.149l28.127,22.689l15.043-12.668
											l2.083,2.474L413.27,46.959z"/>
									</g>
									<g>
										<polygon fill="#19217F" points="424.999,55.094 419.713,39.714 373.537,27.593 374.358,24.465 422.208,37.026 
											428.058,54.043 										"/>
									</g>
								</g>
							</g>
							<g>
								<g>
									<g>
										<g>
											<polygon fill="#FFB817" points="425.644,85.032 423.035,83.957 420.886,87.181 415.513,85.646 411.829,87.181 
												411.061,91.019 406.149,91.172 404.461,94.703 405.228,97.312 402.005,99.615 399.702,102.378 399.856,106.676 
												401.084,108.518 398.628,110.36 397.553,113.891 398.781,116.193 400.163,117.882 397.707,121.413 397.86,126.325 
												399.549,128.474 401.237,130.316 401.237,134.307 402.926,137.377 407.531,138.605 409.68,139.526 409.987,142.596 
												411.369,145.206 414.285,146.894 418.43,147.048 421.5,149.35 425.951,150.118 427.486,147.662 427.793,141.675 
												427.793,87.641 											"/>
										</g>
									</g>
									<g>
										<g>
											<g>
												<path fill="#19217F" d="M415.346,148.74c-0.44,0-0.897-0.043-1.373-0.129c-2.437-0.44-4.179-1.582-5.175-3.393
													c-1.929-3.508-0.078-8.152,0.002-8.347c0.337-0.826,1.28-1.226,2.107-0.888c0.828,0.337,1.225,1.28,0.888,2.107
													c-0.378,0.944-1.147,3.793-0.159,5.577c0.511,0.924,1.463,1.501,2.912,1.762c1.409,0.252,2.479,0.001,3.47-2.033
													c0.392-0.803,1.358-1.136,2.162-0.745c0.803,0.392,1.136,1.359,0.745,2.162
													C419.653,147.424,417.779,148.74,415.346,148.74z"/>
											</g>
										</g>
										<g>
											<g>
												<path fill="#19217F" d="M423.799,151.815c-1.206,0-2.423-0.419-3.454-1.222c-1.808-1.407-2.722-3.72-2.507-6.347
													c0.073-0.891,0.852-1.548,1.743-1.48c0.89,0.073,1.553,0.853,1.48,1.743c-0.124,1.52,0.339,2.807,1.27,3.532
													c0.632,0.493,1.42,0.661,2.061,0.444c0.431-0.148,0.824-0.463,1.105-0.885c0.807-1.215,0.81-2.892,0.813-4.513
													l0.091-52.628c0.005-2.861-0.544-4.431-1.677-4.803c-0.685-0.226-1.479,0.175-1.77,0.891l-0.028,0.066
													c-0.355,0.872-1.073,1.578-1.964,1.922c-0.878,0.34-1.827,0.304-2.668-0.101c-0.157-0.075-0.333-0.167-0.525-0.267
													c-1.606-0.836-2.938-1.389-4.239-0.312c-1.806,1.497,0.033,4.021,0.249,4.303c0.54,0.708,0.409,1.722-0.296,2.265
													c-0.705,0.544-1.714,0.417-2.261-0.285c-1.402-1.803-3.155-5.956,0.245-8.773c3.058-2.533,6.377-0.804,7.795-0.067
													c0.158,0.083,0.302,0.158,0.431,0.22c0.013,0.006,0.048,0.021,0.105-0.001c0.03-0.011,0.102-0.048,0.14-0.141
													l0.028-0.067c0.928-2.278,3.464-3.482,5.766-2.728c3.916,1.283,3.907,6.249,3.904,7.882l-0.091,52.628
													c-0.003,1.904-0.007,4.272-1.354,6.298c-0.673,1.012-1.65,1.777-2.751,2.155
													C424.907,151.726,424.354,151.815,423.799,151.815z"/>
											</g>
										</g>
										<g>
											<g>
												<path fill="#19217F" d="M404.792,119.783c-0.006,0-0.011,0-0.017,0c-0.678-0.007-4.151-0.102-5.907-1.294
													c-1.903-1.29-2.946-3.659-2.658-6.035c0.4-3.299,3.183-4.848,4.765-5.244c0.862-0.221,1.744,0.31,1.961,1.176
													c0.216,0.862-0.305,1.736-1.164,1.958c-0.109,0.03-2.121,0.604-2.352,2.499c-0.141,1.167,0.366,2.361,1.263,2.97
													c0.704,0.477,2.878,0.721,4.126,0.736c0.893,0.011,1.608,0.742,1.599,1.635
													C406.398,119.071,405.677,119.783,404.792,119.783z"/>
											</g>
										</g>
										<g>
											<g>
												<path fill="#19217F" d="M406.166,140.435c-1.367,0-2.411-0.485-3.09-0.942c-2.8-1.885-3.797-6.05-3.025-8.897
													c-2.857-1.511-4.253-4.008-3.938-7.052c0.32-3.083,2.564-6.408,4.709-6.976c0.86-0.227,1.748,0.286,1.977,1.15
													c0.227,0.86-0.282,1.742-1.14,1.974c-0.618,0.229-2.215,2.218-2.346,4.395c-0.099,1.647,0.679,2.863,2.377,3.716
													c1.293,0.65,1.944,2.166,1.515,3.526c-0.512,1.626,0.121,4.434,1.677,5.481c1.491,1.004,3.442-0.143,4.817-1.28
													c0.686-0.569,1.707-0.474,2.276,0.215c0.57,0.688,0.473,1.707-0.215,2.276
													C409.544,139.854,407.662,140.435,406.166,140.435z"/>
											</g>
										</g>
										<g>
											<g>
												<path fill="#19217F" d="M417.2,129.276c-0.467,0-0.943-0.056-1.419-0.171c-1.873-0.449-3.341-1.705-3.927-3.359
													c-0.298-0.842,0.143-1.766,0.984-2.064c0.843-0.297,1.766,0.142,2.064,0.984c0.216,0.609,0.841,1.105,1.633,1.295
													c0.793,0.191,1.574,0.032,2.042-0.414c0.469-0.445,0.668-1.217,0.519-2.017c-0.148-0.8-0.611-1.451-1.208-1.698
													c-0.825-0.341-1.217-1.287-0.875-2.112c0.342-0.825,1.287-1.218,2.112-0.875c1.622,0.671,2.8,2.202,3.151,4.096
													c0.351,1.894-0.199,3.745-1.472,4.953C419.855,128.794,418.569,129.275,417.2,129.276z"/>
											</g>
										</g>
										<g>
											<g>
												<path fill="#19217F" d="M414.027,109.94c-0.46,0-0.918-0.196-1.239-0.577c-0.922-1.097-1.271-2.595-0.958-4.108
													s1.228-2.749,2.51-3.39c1.282-0.64,2.82-0.631,4.219,0.026c1.398,0.658,2.387,1.835,2.711,3.232
													c0.202,0.87-0.34,1.739-1.21,1.941c-0.87,0.201-1.739-0.339-1.941-1.21c-0.097-0.419-0.447-0.807-0.937-1.036
													c-0.489-0.231-1.011-0.253-1.396-0.06c-0.385,0.192-0.68,0.623-0.79,1.153c-0.109,0.529-0.01,1.042,0.268,1.372
													c0.574,0.683,0.486,1.704-0.198,2.278C414.763,109.816,414.395,109.94,414.027,109.94z"/>
											</g>
										</g>
										<g>
											<g>
												<path fill="#19217F" d="M406.601,112.428c-4.395,0-7.364-2.708-7.96-7.276c-0.476-3.647,1.373-6.506,5.071-7.843
													c-0.704-2.65-0.357-4.755,0.989-6.215c2.156-2.34,5.868-1.818,6.285-1.751c0.882,0.142,1.481,0.972,1.338,1.854
													c-0.142,0.88-0.965,1.477-1.849,1.34c-0.619-0.095-2.569-0.157-3.401,0.754c-0.698,0.764-0.528,2.209-0.263,3.287
													c0.393,1.597-0.467,3.219-2,3.772c-3.376,1.221-3.065,3.601-2.963,4.384c0.392,3.006,2.024,4.53,4.879,4.459
													c0.88-0.015,1.629,0.697,1.644,1.59c0.014,0.893-0.697,1.629-1.59,1.644
													C406.721,112.427,406.661,112.428,406.601,112.428z"/>
											</g>
										</g>
									</g>
								</g>
								<g>
									<g>
										<g>
											<g>
												<polygon fill="#FFB817" points="436.442,85.032 439.052,83.957 441.201,87.181 446.573,85.646 450.257,87.181 
													451.025,91.019 455.937,91.172 457.626,94.703 456.858,97.312 460.082,99.615 462.384,102.378 462.231,106.676 
													461.003,108.518 463.459,110.36 464.533,113.891 463.305,116.193 461.924,117.882 464.38,121.413 464.226,126.325 
													462.538,128.474 460.849,130.316 460.849,134.307 459.161,137.377 454.556,138.605 452.406,139.526 452.099,142.596 
													450.718,145.206 447.801,146.894 443.657,147.048 440.587,149.35 436.135,150.118 434.6,147.662 434.293,141.675 
													434.293,87.641 												"/>
											</g>
										</g>
									</g>
									<g>
										<g>
											<g>
												<path fill="#19217F" d="M447.098,148.74c-2.434,0-4.307-1.316-5.58-3.926c-0.392-0.803-0.058-1.77,0.745-2.162
													c0.803-0.39,1.77-0.058,2.162,0.745c0.992,2.035,2.065,2.285,3.47,2.033c1.432-0.259,2.38-0.837,2.898-1.768
													c1.225-2.201-0.115-5.744-0.129-5.779c-0.328-0.831,0.08-1.77,0.91-2.098c0.828-0.328,1.77,0.079,2.098,0.91
													c0.08,0.202,1.928,4.98-0.053,8.539c-1.005,1.806-2.737,2.942-5.149,3.377
													C447.994,148.697,447.537,148.74,447.098,148.74z"/>
											</g>
										</g>
										<g>
											<g>
												<path fill="#19217F" d="M438.715,151.828c-0.577,0.001-1.153-0.093-1.708-0.283c-1.101-0.377-2.078-1.142-2.752-2.154
													c-1.347-2.027-1.351-4.395-1.354-6.299l-0.091-52.628c-0.003-1.631-0.012-6.598,3.905-7.881
													c2.303-0.754,4.837,0.45,5.772,2.743c0.059,0.145,0.132,0.181,0.162,0.193c0.06,0.022,0.092,0.008,0.106,0.001
													c0.129-0.062,0.273-0.137,0.431-0.219c1.417-0.738,4.739-2.466,7.795,0.066c3.399,2.817,1.647,6.97,0.244,8.773
													c-0.549,0.705-1.564,0.832-2.269,0.284c-0.703-0.547-0.831-1.559-0.287-2.264c0.217-0.286,2.055-2.807,0.249-4.303
													c-1.3-1.076-2.632-0.524-4.239,0.312c-0.192,0.1-0.368,0.191-0.524,0.267c-0.842,0.405-1.789,0.441-2.669,0.101
													c-0.891-0.344-1.609-1.05-1.971-1.938c-0.313-0.767-1.109-1.167-1.791-0.942c-1.135,0.372-1.684,1.943-1.679,4.803
													l0.091,52.629c0.003,1.621,0.006,3.298,0.813,4.513c0.282,0.423,0.675,0.738,1.107,0.885
													c0.681,0.233,1.497,0.073,2.129-0.419c0.879-0.685,1.297-1.88,1.175-3.365c-0.073-0.891,0.589-1.671,1.479-1.743
													c0.892-0.073,1.671,0.589,1.743,1.479c0.21,2.571-0.669,4.824-2.412,6.181
													C441.148,151.413,439.931,151.828,438.715,151.828z"/>
											</g>
										</g>
										<g>
											<g>
												<path fill="#19217F" d="M457.652,119.783c-0.884,0-1.606-0.712-1.616-1.599c-0.01-0.892,0.706-1.624,1.599-1.635
													c1.248-0.014,3.422-0.258,4.126-0.736c0.897-0.609,1.405-1.803,1.263-2.971c-0.232-1.906-2.267-2.476-2.353-2.499
													c-0.856-0.231-1.374-1.111-1.151-1.97c0.224-0.859,1.091-1.383,1.95-1.163c1.582,0.395,4.364,1.945,4.765,5.243
													c0.288,2.376-0.755,4.745-2.658,6.036c-1.757,1.192-5.229,1.287-5.908,1.294
													C457.663,119.783,457.658,119.783,457.652,119.783z"/>
											</g>
										</g>
										<g>
											<g>
												<path fill="#19217F" d="M456.278,140.435c-1.496,0-3.378-0.58-5.594-2.415c-0.688-0.569-0.784-1.589-0.215-2.276
													c0.569-0.688,1.589-0.784,2.276-0.215c1.375,1.138,3.327,2.285,4.817,1.28c1.556-1.047,2.189-3.855,1.676-5.482
													c-0.429-1.36,0.223-2.876,1.516-3.526c1.698-0.854,2.476-2.069,2.377-3.716c-0.131-2.182-1.735-4.174-2.35-4.395
													c-0.863-0.229-1.372-1.112-1.143-1.975c0.229-0.863,1.122-1.374,1.983-1.148c2.144,0.568,4.388,3.893,4.709,6.976
													c0.316,3.044-1.081,5.542-3.938,7.053c0.772,2.847-0.226,7.012-3.025,8.897
													C458.689,139.949,457.645,140.435,456.278,140.435z"/>
											</g>
										</g>
										<g>
											<g>
												<path fill="#19217F" d="M445.245,129.275c-1.369,0.001-2.655-0.481-3.605-1.382c-1.273-1.208-1.823-3.06-1.472-4.954
													c0.351-1.894,1.529-3.425,3.151-4.095c0.824-0.343,1.77,0.051,2.112,0.875c0.342,0.825-0.051,1.771-0.875,2.112
													c-0.597,0.247-1.06,0.898-1.208,1.698c-0.148,0.8,0.051,1.573,0.519,2.018c0.469,0.446,1.252,0.605,2.043,0.413
													c0.791-0.189,1.416-0.686,1.632-1.295c0.298-0.842,1.222-1.282,2.064-0.984c0.841,0.298,1.282,1.222,0.984,2.064
													c-0.586,1.654-2.053,2.91-3.926,3.359C446.188,129.219,445.712,129.275,445.245,129.275z"/>
											</g>
										</g>
										<g>
											<g>
												<path fill="#19217F" d="M448.417,109.94c-0.368,0-0.737-0.124-1.04-0.379c-0.684-0.575-0.772-1.595-0.198-2.278
													c0.277-0.33,0.377-0.843,0.268-1.372c-0.11-0.529-0.405-0.961-0.79-1.153c-0.385-0.193-0.907-0.171-1.397,0.06
													c-0.489,0.23-0.839,0.618-0.937,1.036c-0.202,0.87-1.07,1.41-1.941,1.21c-0.87-0.202-1.412-1.071-1.21-1.941
													c0.325-1.396,1.313-2.574,2.712-3.232c1.398-0.657,2.936-0.666,4.219-0.026c1.282,0.641,2.197,1.877,2.51,3.39
													c0.314,1.514-0.036,3.012-0.958,4.109C449.335,109.744,448.877,109.94,448.417,109.94z"/>
											</g>
										</g>
										<g>
											<g>
												<path fill="#19217F" d="M455.843,112.428c-0.06,0-0.12-0.001-0.181-0.001c-0.893-0.015-1.604-0.751-1.59-1.644
													c0.016-0.893,0.76-1.605,1.644-1.59c0.044,0.001,0.087,0.001,0.13,0.001c2.766,0,4.363-1.5,4.75-4.46
													c0.102-0.783,0.412-3.163-2.965-4.385c-1.533-0.553-2.392-2.175-1.998-3.772c0.265-1.08,0.435-2.529-0.268-3.292
													c-0.865-0.937-2.895-0.831-3.392-0.75c-0.886,0.148-1.712-0.457-1.854-1.338c-0.143-0.882,0.457-1.712,1.338-1.854
													c0.418-0.068,4.129-0.589,6.285,1.751c1.346,1.46,1.692,3.565,1.03,6.257c3.657,1.295,5.506,4.154,5.03,7.801
													C463.206,109.719,460.236,112.428,455.843,112.428z"/>
											</g>
										</g>
									</g>
								</g>
							</g>
							<g>
								<g>
									<path fill="#FFFFFF" d="M427.948,165.81c0-1.786,1.449-3.234,3.234-3.234l0,0c1.785-0.007,3.234,1.442,3.234,3.227l0,0
										c0,1.786-1.449,3.234-3.234,3.234l0,0C429.397,169.044,427.948,167.595,427.948,165.81z M421.054,168.06L421.054,168.06
										L421.054,168.06c-1.753-0.343-2.891-2.044-2.548-3.797l0,0c0.343-1.753,2.044-2.897,3.797-2.548l0,0
										c1.753,0.342,2.891,2.043,2.548,3.796l0,0c-0.304,1.54-1.655,2.607-3.169,2.607l0,0
										C421.474,168.118,421.267,168.099,421.054,168.06z M437.514,165.505c-0.349-1.753,0.789-3.454,2.542-3.803l0,0
										c1.753-0.349,3.454,0.789,3.804,2.542l0,0c0.349,1.753-0.796,3.454-2.542,3.804l0,0c-0.213,0.045-0.427,0.064-0.634,0.064
										l0,0C439.17,168.112,437.818,167.045,437.514,165.505z M411.3,165.111L411.3,165.111L411.3,165.111
										c-1.649-0.68-2.432-2.574-1.753-4.224l0,0c0.686-1.649,2.574-2.432,4.23-1.753l0,0c1.65,0.685,2.432,2.574,1.746,4.224l0,0
										c-0.511,1.248-1.72,1.998-2.988,1.998l0,0C412.122,165.357,411.701,165.279,411.3,165.111z M446.841,163.345
										c-0.685-1.655,0.091-3.544,1.74-4.23l0,0c1.649-0.685,3.544,0.097,4.23,1.746l0,0c0.685,1.649-0.097,3.544-1.746,4.23l0,0
										c0,0,0,0,0-0.006l0,0c-0.407,0.174-0.828,0.252-1.242,0.252l0,0C448.555,165.337,447.352,164.587,446.841,163.345z
										 M402.317,160.312c-1.481-0.996-1.882-3.001-0.892-4.489l0,0c0.996-1.481,3.001-1.882,4.489-0.892l0,0
										c1.481,0.996,1.882,3.001,0.893,4.488l0,0c-0.628,0.932-1.65,1.436-2.691,1.436l0,0
										C403.494,160.855,402.873,160.681,402.317,160.312z M455.553,159.393c-0.996-1.487-0.596-3.492,0.886-4.488l0,0
										c1.488-0.996,3.493-0.595,4.489,0.886l0,0c0.996,1.481,0.595,3.492-0.886,4.488l0,0l0,0l0,0
										c-0.556,0.369-1.177,0.543-1.798,0.543l0,0C457.202,160.823,456.18,160.325,455.553,159.393z M394.446,153.857
										c-1.261-1.268-1.268-3.312-0.006-4.573l0,0c1.261-1.268,3.312-1.268,4.572-0.006l0,0c1.268,1.261,1.268,3.312,0.007,4.573
										l0,0c-0.634,0.633-1.462,0.95-2.29,0.95l0,0C395.901,154.801,395.08,154.484,394.446,153.857z M463.333,153.812
										c-1.268-1.261-1.268-3.312,0-4.572l0,0c1.261-1.261,3.305-1.261,4.573,0l0,0c1.261,1.261,1.261,3.312,0,4.572l0,0l0,0l0,0
										c-0.634,0.634-1.462,0.951-2.29,0.951l0,0C464.788,154.763,463.961,154.446,463.333,153.812z M387.978,145.992
										c-0.996-1.481-0.601-3.492,0.88-4.488l0,0c1.487-0.996,3.492-0.595,4.488,0.886l0,0c0.996,1.481,0.602,3.493-0.886,4.489
										l0,0c-0.549,0.369-1.177,0.55-1.798,0.55l0,0C389.621,147.428,388.599,146.924,387.978,145.992z M469.879,146.833
										c-1.481-0.996-1.882-3.001-0.886-4.488l0,0c0.99-1.481,3.001-1.882,4.483-0.886l0,0c1.488,0.99,1.882,3.001,0.893,4.482
										l0,0c-0.628,0.932-1.65,1.436-2.691,1.436l0,0C471.056,147.377,470.435,147.202,469.879,146.833z M383.159,137.022
										c-0.685-1.649,0.097-3.544,1.746-4.23l0,0c1.649-0.685,3.538,0.097,4.224,1.746l0,0c0.685,1.649-0.091,3.538-1.74,4.224
										l0,0c-0.407,0.174-0.828,0.252-1.242,0.252l0,0C384.88,139.014,383.677,138.263,383.159,137.022z M474.943,138.71
										c-1.649-0.679-2.432-2.574-1.746-4.224l0,0c0.686-1.649,2.574-2.432,4.224-1.746l0,0c1.655,0.68,2.438,2.574,1.753,4.224
										l0,0l0,0l0,0c-0.517,1.242-1.721,1.998-2.988,1.998l0,0C475.771,138.962,475.35,138.878,474.943,138.71z M380.197,127.268
										c0,0,0,0,0,0.007l0,0c-0.349-1.753,0.789-3.461,2.542-3.804l0,0c1.746-0.349,3.454,0.783,3.803,2.542h-0.007
										c0.349,1.746-0.789,3.454-2.535,3.797l0,0c-0.213,0.045-0.426,0.064-0.633,0.064l0,0
										C381.853,129.875,380.502,128.808,380.197,127.268z M478.326,129.759c-1.753-0.349-2.892-2.05-2.542-3.803l0,0
										c0.343-1.746,2.044-2.891,3.797-2.542l0,0c1.753,0.343,2.891,2.044,2.542,3.797l0,0c-0.304,1.539-1.655,2.613-3.163,2.613
										l0,0C478.746,129.823,478.539,129.797,478.326,129.759z M379.195,117.14c0-1.786,1.449-3.234,3.234-3.234l0,0
										c1.785-0.007,3.234,1.442,3.234,3.227l0,0c0.006,1.786-1.442,3.234-3.228,3.241l0,0
										C380.65,120.374,379.195,118.932,379.195,117.14z M476.644,117.082L476.644,117.082c0-0.006,0-0.006,0-0.013l0,0
										c0-0.032,0-0.065,0-0.09v-0.007c0-1.785,1.443-3.234,3.228-3.234l0,0c1.785-0.006,3.234,1.436,3.24,3.221l0,0
										c0,0.026,0,0.045,0,0.064l0,0c0,0.02,0,0.039,0,0.058l0,0c0,1.786-1.449,3.234-3.234,3.234l0,0
										C478.093,120.315,476.644,118.867,476.644,117.082z M483.111,116.959L483.111,116.959L483.111,116.959L483.111,116.959
										L483.111,116.959L483.111,116.959z M382.72,110.808c-1.753-0.349-2.891-2.044-2.549-3.797l0,0
										c0.343-1.753,2.044-2.898,3.797-2.549l0,0c1.753,0.343,2.898,2.044,2.549,3.797l0,0c-0.297,1.539-1.656,2.607-3.169,2.607
										l0,0C383.14,110.867,382.933,110.847,382.72,110.808z M475.758,108.105L475.758,108.105
										c-0.349-1.753,0.789-3.46,2.535-3.809l0,0c1.753-0.349,3.461,0.789,3.81,2.535l0,0l0,0l0,0
										c0.349,1.753-0.79,3.46-2.535,3.809l0,0c-0.22,0.039-0.433,0.065-0.64,0.065l0,0
										C477.414,110.705,476.068,109.637,475.758,108.105z M384.867,101.481c-1.65-0.685-2.439-2.574-1.753-4.223l0,0
										c0.679-1.656,2.574-2.439,4.223-1.753l0,0c1.649,0.679,2.439,2.568,1.753,4.223l0,0c-0.511,1.242-1.72,1.999-2.988,1.999
										l0,0C385.689,101.728,385.268,101.65,384.867,101.481z M473.158,99.58L473.158,99.58c-0.686-1.649,0.09-3.545,1.739-4.23
										l0,0c1.65-0.692,3.545,0.09,4.23,1.74l0,0l0,0l0,0c0.686,1.649-0.09,3.538-1.739,4.229l0,0
										c-0.407,0.169-0.828,0.253-1.242,0.253l0,0C474.878,101.572,473.675,100.822,473.158,99.58z M388.806,92.757
										c-1.488-0.99-1.889-3.001-0.9-4.483l0,0c0.996-1.488,3.002-1.889,4.489-0.899l0,0c1.481,0.99,1.882,3.001,0.892,4.489l0,0
										c-0.621,0.931-1.649,1.436-2.691,1.436l0,0C389.976,93.3,389.356,93.125,388.806,92.757z M468.934,91.729L468.934,91.729
										c-0.996-1.481-0.608-3.493,0.88-4.483l0,0c1.481-1.002,3.486-0.608,4.488,0.874l0,0c0.996,1.481,0.602,3.492-0.879,4.488
										l0,0c-0.556,0.375-1.184,0.55-1.804,0.55l0,0C470.577,93.158,469.555,92.66,468.934,91.729z M394.368,84.97
										c-1.268-1.261-1.268-3.312-0.006-4.573l0,0c1.261-1.268,3.312-1.268,4.573-0.006l0,0c1.268,1.261,1.268,3.305,0.006,4.573
										l0,0c-0.634,0.633-1.462,0.951-2.29,0.951l0,0C395.823,85.914,395.002,85.597,394.368,84.97z M463.255,84.853
										c-1.268-1.268-1.268-3.311-0.006-4.572l0,0c1.255-1.268,3.305-1.275,4.573-0.013l0,0c1.261,1.261,1.268,3.312,0.006,4.573
										l0,0c-0.633,0.633-1.462,0.951-2.29,0.951l0,0C464.711,85.791,463.89,85.481,463.255,84.853z M401.34,78.411
										c-1.002-1.487-0.608-3.498,0.879-4.488l0,0l0,0l0,0c1.481-0.996,3.493-0.601,4.489,0.879l0,0
										c0.996,1.481,0.601,3.493-0.886,4.489l0,0c-0.549,0.369-1.177,0.55-1.798,0.55l0,0
										C402.983,79.84,401.961,79.336,401.34,78.411z M456.355,79.201L456.355,79.201c-1.488-0.99-1.889-2.995-0.899-4.483l0,0
										c0.99-1.487,3.001-1.888,4.482-0.899l0,0l0,0l0,0c1.487,0.99,1.888,2.994,0.899,4.482l0,0
										c-0.621,0.938-1.65,1.443-2.697,1.443l0,0C457.526,79.744,456.905,79.569,456.355,79.201z M409.451,73.328
										c-0.692-1.649,0.09-3.545,1.739-4.23l0,0c1.65-0.686,3.538,0.09,4.23,1.739l0,0c0.686,1.65-0.097,3.545-1.746,4.23l0,0
										c-0.408,0.169-0.828,0.253-1.242,0.253l0,0C411.165,75.32,409.968,74.57,409.451,73.328z M418.396,69.932
										c-0.349-1.753,0.789-3.454,2.542-3.803l0,0c1.753-0.349,3.454,0.783,3.803,2.542l0,0c0.349,1.746-0.789,3.447-2.542,3.803
										l0,0c-0.213,0.039-0.427,0.058-0.634,0.058l0,0C420.051,72.532,418.706,71.472,418.396,69.932z"/>
								</g>
							</g>
							<path fill="#19217F" d="M428.312,78.529l-0.601-4.001l19.458-2.92l-7.094-4.841c-1.281-0.874-1.85-2.407-1.449-3.906
								c0.401-1.499,1.659-2.543,3.206-2.661l16.993-1.294L438.509,45.08l2.28-3.342l20.309,13.858
								c1.434,0.978,2.07,2.694,1.622,4.37c-0.449,1.677-1.857,2.845-3.587,2.977l-15.729,1.198l6.228,4.25
								c1.355,0.925,1.995,2.556,1.628,4.155c-0.366,1.599-1.651,2.79-3.274,3.034L428.312,78.529z"/>
							<g>
								<g>
									<path fill="#19217F" d="M383.766,154.674c0.993,1.572,0.519,3.659-1.06,4.652l0,0c-1.572,0.986-3.653,0.519-4.645-1.06l0,0
										c-0.992-1.579-0.519-3.66,1.054-4.652l0,0c0.64-0.396,1.363-0.563,2.062-0.509l0,0
										C382.199,153.184,383.177,153.734,383.766,154.674z M375.208,160.064c0.993,1.573,0.519,3.652-1.06,4.645l0,0
										c-1.573,0.993-3.653,0.519-4.646-1.053l0,0c-0.993-1.579-0.518-3.66,1.054-4.652l0,0c0.64-0.403,1.356-0.564,2.056-0.509
										l0,0C373.64,158.575,374.618,159.125,375.208,160.064z M366.642,165.448c0.992,1.58,0.519,3.66-1.054,4.652l0,0
										c-1.579,0.993-3.659,0.519-4.652-1.06l0,0c-0.993-1.573-0.519-3.66,1.06-4.645l0,0c0.634-0.404,1.356-0.564,2.055-0.509
										l0,0C365.081,163.966,366.053,164.509,366.642,165.448z M358.083,170.838c0.993,1.573,0.519,3.653-1.053,4.646l0,0
										c-1.579,0.993-3.659,0.519-4.652-1.054l0,0c-0.992-1.58-0.519-3.66,1.061-4.652l0,0c0.633-0.404,1.356-0.564,2.056-0.509
										l0,0C356.516,169.35,357.494,169.9,358.083,170.838z"/>
								</g>
								<g>
									<path fill="#19217F" d="M374.185,139.632c0.47,1.808-0.605,3.647-2.412,4.117l0,0c-1.801,0.469-3.641-0.612-4.11-2.413l0,0
										c-0.476-1.8,0.605-3.64,2.406-4.11l0,0c0.233-0.065,0.468-0.097,0.697-0.107l0,0
										C372.328,137.046,373.774,138.065,374.185,139.632z M364.402,142.192c0.469,1.801-0.612,3.647-2.412,4.116l0,0
										c-1.801,0.47-3.64-0.611-4.116-2.412l0,0c-0.47-1.801,0.611-3.647,2.412-4.117l0,0c0.234-0.058,0.468-0.096,0.697-0.107
										l0,0C362.538,139.599,363.991,140.625,364.402,142.192z M354.612,144.752c0.469,1.801-0.605,3.64-2.406,4.11l0,0
										c-1.807,0.47-3.647-0.605-4.116-2.406l0,0c-0.47-1.8,0.605-3.646,2.405-4.116l0,0c0.234-0.059,0.468-0.097,0.697-0.107l0,0
										C352.755,142.159,354.2,143.178,354.612,144.752z M344.828,147.304c0.469,1.801-0.612,3.647-2.412,4.116l0,0
										c-1.801,0.47-3.641-0.611-4.117-2.412l0,0c-0.469-1.801,0.612-3.641,2.412-4.11l0,0c0.233-0.065,0.468-0.096,0.697-0.107
										l0,0C342.965,144.719,344.417,145.737,344.828,147.304z"/>
								</g>
								<g>
									<path fill="#19217F" d="M394.64,168.21c1.489,1.111,1.804,3.225,0.686,4.714l0,0c-1.111,1.496-3.225,1.804-4.714,0.693l0,0
										c-1.496-1.112-1.804-3.226-0.693-4.715l0,0c0.718-0.965,1.858-1.437,2.974-1.35l0,0
										C393.504,167.6,394.109,167.816,394.64,168.21z M388.594,176.32c1.496,1.111,1.804,3.226,0.692,4.722l0,0
										c-1.111,1.489-3.226,1.804-4.721,0.686l0,0c-1.489-1.111-1.797-3.225-0.686-4.714l0,0c0.718-0.965,1.851-1.438,2.967-1.351
										l0,0C387.458,175.711,388.07,175.928,388.594,176.32z M382.555,184.432c1.496,1.111,1.804,3.225,0.686,4.72l0,0
										c-1.112,1.496-3.219,1.804-4.714,0.687l0,0c-1.496-1.111-1.804-3.219-0.693-4.715l0,0c0.718-0.965,1.858-1.437,2.973-1.35
										l0,0C381.419,183.822,382.024,184.038,382.555,184.432z M376.508,192.549c1.496,1.111,1.804,3.219,0.693,4.714l0,0
										c-1.111,1.496-3.225,1.804-4.714,0.693l0,0c-1.495-1.118-1.804-3.226-0.693-4.722l0,0c0.718-0.965,1.851-1.438,2.967-1.351
										l0,0C375.373,191.932,375.985,192.149,376.508,192.549z"/>
								</g>
							</g>
							<g>
								<g>
									<path fill="#19217F" d="M376.45,87.49c0.928-1.612,0.369-3.677-1.25-4.605l0,0c-1.611-0.921-3.671-0.369-4.598,1.249l0,0
										c-0.927,1.618-0.369,3.678,1.243,4.605l0,0c0.655,0.37,1.385,0.507,2.081,0.424l0,0
										C374.945,89.042,375.9,88.452,376.45,87.49z M367.678,82.453c0.928-1.612,0.37-3.671-1.249-4.597l0,0
										c-1.612-0.928-3.671-0.37-4.599,1.242l0,0c-0.927,1.618-0.369,3.678,1.243,4.605l0,0c0.656,0.377,1.378,0.508,2.075,0.425
										l0,0C366.172,84.005,367.128,83.415,367.678,82.453z M358.9,77.424c0.927-1.619,0.369-3.678-1.243-4.605l0,0
										c-1.619-0.927-3.678-0.369-4.605,1.249l0,0c-0.928,1.612-0.369,3.678,1.249,4.598l0,0c0.65,0.377,1.378,0.508,2.075,0.425
										l0,0C357.401,78.968,358.35,78.386,358.9,77.424z M350.128,72.387c0.928-1.612,0.369-3.671-1.242-4.599l0,0
										c-1.618-0.927-3.677-0.369-4.605,1.243l0,0c-0.927,1.619-0.369,3.678,1.25,4.605l0,0c0.649,0.377,1.378,0.508,2.075,0.425
										l0,0C348.623,73.939,349.577,73.349,350.128,72.387z"/>
								</g>
								<g>
									<path fill="#19217F" d="M386.761,73.52c1.442-1.171,1.67-3.296,0.493-4.738l0,0c-1.171-1.449-3.296-1.671-4.739-0.5l0,0
										c-1.449,1.172-1.671,3.297-0.5,4.739l0,0c0.757,0.935,1.915,1.36,3.026,1.227l0,0
										C385.651,74.176,386.247,73.935,386.761,73.52z M380.389,65.664c1.449-1.171,1.67-3.297,0.499-4.746l0,0
										c-1.171-1.442-3.297-1.671-4.745-0.492l0,0c-1.443,1.171-1.664,3.295-0.493,4.738l0,0c0.757,0.935,1.908,1.361,3.02,1.228
										l0,0C379.279,66.319,379.881,66.077,380.389,65.664z M374.023,57.806c1.449-1.171,1.671-3.296,0.492-4.744l0,0
										c-1.172-1.45-3.29-1.671-4.738-0.494l0,0c-1.449,1.171-1.672,3.29-0.5,4.739l0,0c0.757,0.935,1.915,1.36,3.026,1.227l0,0
										C372.913,58.462,373.509,58.221,374.023,57.806z M367.651,49.942c1.449-1.171,1.671-3.29,0.5-4.739l0,0
										c-1.171-1.449-3.296-1.671-4.739-0.5l0,0c-1.449,1.179-1.671,3.297-0.499,4.746l0,0c0.757,0.935,1.908,1.361,3.02,1.228
										l0,0C366.541,50.605,367.144,50.363,367.651,49.942z"/>
								</g>
							</g>
							<g>
								<g>
									<path fill="#19217F" d="M487.233,87.49c-0.928-1.612-0.369-3.677,1.25-4.605l0,0c1.611-0.921,3.671-0.369,4.598,1.249l0,0
										c0.927,1.618,0.369,3.678-1.243,4.605l0,0c-0.655,0.37-1.385,0.507-2.081,0.424l0,0
										C488.739,89.042,487.784,88.452,487.233,87.49z M496.005,82.453c-0.928-1.612-0.369-3.671,1.249-4.597l0,0
										c1.612-0.928,3.671-0.37,4.599,1.242l0,0c0.927,1.618,0.369,3.678-1.243,4.605l0,0c-0.656,0.377-1.378,0.508-2.075,0.425
										l0,0C497.511,84.005,496.556,83.415,496.005,82.453z M504.783,77.424c-0.927-1.619-0.368-3.678,1.243-4.605l0,0
										c1.619-0.927,3.678-0.369,4.605,1.249l0,0c0.928,1.612,0.369,3.678-1.249,4.598l0,0c-0.65,0.377-1.378,0.508-2.075,0.425
										l0,0C506.283,78.968,505.334,78.386,504.783,77.424z M513.555,72.387c-0.928-1.612-0.369-3.671,1.242-4.599l0,0
										c1.618-0.927,3.677-0.369,4.605,1.243l0,0c0.927,1.619,0.369,3.678-1.25,4.605l0,0c-0.649,0.377-1.378,0.508-2.075,0.425
										l0,0C515.061,73.939,514.106,73.349,513.555,72.387z"/>
								</g>
								<g>
									<path fill="#19217F" d="M476.922,73.52c-1.442-1.171-1.67-3.296-0.493-4.738l0,0c1.171-1.449,3.296-1.671,4.739-0.5l0,0
										c1.449,1.172,1.671,3.297,0.5,4.739l0,0c-0.757,0.935-1.915,1.36-3.026,1.227l0,0
										C478.032,74.176,477.437,73.935,476.922,73.52z M483.294,65.664c-1.449-1.171-1.67-3.297-0.499-4.746l0,0
										c1.171-1.442,3.297-1.671,4.745-0.492l0,0c1.442,1.171,1.664,3.295,0.493,4.738l0,0c-0.757,0.935-1.908,1.361-3.02,1.228
										l0,0C484.405,66.319,483.802,66.077,483.294,65.664z M489.66,57.806c-1.449-1.171-1.671-3.296-0.492-4.744l0,0
										c1.172-1.45,3.29-1.671,4.738-0.494l0,0c1.449,1.171,1.671,3.29,0.5,4.739l0,0c-0.757,0.935-1.915,1.36-3.026,1.227l0,0
										C490.77,58.462,490.174,58.221,489.66,57.806z M496.033,49.942c-1.449-1.171-1.671-3.29-0.5-4.739l0,0
										c1.171-1.449,3.296-1.671,4.739-0.5l0,0c1.449,1.179,1.671,3.297,0.499,4.746l0,0c-0.757,0.935-1.908,1.361-3.019,1.228
										l0,0C497.142,50.605,496.539,50.363,496.033,49.942z"/>
								</g>
							</g>
							<g>
								<g>
									<path fill="#19217F" d="M478.039,154.674c-0.993,1.572-0.519,3.659,1.061,4.652l0,0c1.572,0.986,3.653,0.519,4.645-1.06
										l0,0c0.992-1.579,0.519-3.66-1.054-4.652l0,0c-0.64-0.396-1.363-0.563-2.062-0.509l0,0
										C479.606,153.184,478.628,153.734,478.039,154.674z M486.598,160.064c-0.993,1.573-0.519,3.652,1.06,4.645l0,0
										c1.573,0.993,3.653,0.519,4.646-1.053l0,0c0.993-1.579,0.518-3.66-1.054-4.652l0,0c-0.64-0.403-1.356-0.564-2.055-0.509
										l0,0C488.166,158.575,487.187,159.125,486.598,160.064z M495.163,165.448c-0.992,1.58-0.519,3.66,1.054,4.652l0,0
										c1.579,0.993,3.659,0.519,4.652-1.06l0,0c0.993-1.573,0.519-3.66-1.06-4.645l0,0c-0.634-0.404-1.356-0.564-2.056-0.509l0,0
										C496.724,163.966,495.752,164.509,495.163,165.448z M503.722,170.838c-0.993,1.573-0.519,3.653,1.053,4.646l0,0
										c1.579,0.993,3.659,0.519,4.652-1.054l0,0c0.992-1.58,0.519-3.66-1.061-4.652l0,0c-0.633-0.404-1.356-0.564-2.055-0.509
										l0,0C505.29,169.35,504.311,169.9,503.722,170.838z"/>
								</g>
								<g>
									<path fill="#19217F" d="M487.62,139.632c-0.47,1.808,0.605,3.647,2.412,4.117l0,0c1.801,0.469,3.641-0.612,4.11-2.413l0,0
										c0.476-1.8-0.605-3.64-2.406-4.11l0,0c-0.233-0.065-0.468-0.097-0.697-0.107l0,0
										C489.477,137.046,488.032,138.065,487.62,139.632z M497.404,142.192c-0.469,1.801,0.612,3.647,2.412,4.116l0,0
										c1.8,0.47,3.64-0.611,4.116-2.412l0,0c0.47-1.801-0.611-3.647-2.412-4.117l0,0c-0.234-0.058-0.468-0.096-0.697-0.107l0,0
										C499.267,139.599,497.815,140.625,497.404,142.192z M507.194,144.752c-0.469,1.801,0.605,3.64,2.406,4.11l0,0
										c1.807,0.47,3.647-0.605,4.116-2.406l0,0c0.47-1.8-0.605-3.646-2.405-4.116l0,0c-0.234-0.059-0.468-0.097-0.697-0.107l0,0
										C509.05,142.159,507.605,143.178,507.194,144.752z M516.977,147.304c-0.469,1.801,0.612,3.647,2.412,4.116l0,0
										c1.801,0.47,3.641-0.611,4.117-2.412l0,0c0.469-1.801-0.612-3.641-2.413-4.11l0,0c-0.233-0.065-0.468-0.096-0.697-0.107
										l0,0C518.84,144.719,517.388,145.737,516.977,147.304z"/>
								</g>
								<g>
									<path fill="#19217F" d="M467.166,168.21c-1.489,1.111-1.804,3.225-0.686,4.714l0,0c1.111,1.496,3.225,1.804,4.715,0.693
										l0,0c1.496-1.112,1.804-3.226,0.693-4.715l0,0c-0.718-0.965-1.858-1.437-2.974-1.35l0,0
										C468.302,167.6,467.696,167.816,467.166,168.21z M473.212,176.32c-1.496,1.111-1.804,3.226-0.692,4.722l0,0
										c1.111,1.489,3.226,1.804,4.721,0.686l0,0c1.489-1.111,1.797-3.225,0.686-4.714l0,0c-0.718-0.965-1.851-1.438-2.967-1.351
										l0,0C474.348,175.711,473.736,175.928,473.212,176.32z M479.251,184.432c-1.496,1.111-1.804,3.225-0.686,4.72l0,0
										c1.111,1.496,3.219,1.804,4.714,0.687l0,0c1.496-1.111,1.804-3.219,0.693-4.715l0,0c-0.718-0.965-1.858-1.437-2.973-1.35
										l0,0C480.387,183.822,479.781,184.038,479.251,184.432z M485.297,192.549c-1.496,1.111-1.804,3.219-0.693,4.714l0,0
										c1.111,1.496,3.225,1.804,4.714,0.693l0,0c1.495-1.118,1.804-3.226,0.693-4.722l0,0c-0.718-0.965-1.851-1.438-2.967-1.351
										l0,0C486.433,191.932,485.82,192.149,485.297,192.549z"/>
								</g>
							</g>
						</g>
						<g>
							<g>
								<circle opacity="0.3"  a:adobe-blending-mode="multiply" cx="306.715" cy="108.942" r="13.596"/>
								<path fill="#FFFFFF" d="M324.884,94.14h-37.196c-3.747,0-14.333,8.486-14.333,14.333v1.506
									c0,7.916,11.967,14.333,14.333,14.333h37.196c4.222,0,14.333-8.307,14.333-14.333v-1.506
									C339.217,102.588,329.451,94.14,324.884,94.14z M306.286,123.252c-7.969,0-14.43-6.461-14.43-14.43s6.461-14.43,14.43-14.43
									c7.97,0,14.43,6.46,14.43,14.43S314.255,123.252,306.286,123.252z"/>
								<g>
									<path fill="#19217F" d="M324.131,125.93h-35.69c-9.273,0-16.269-15.388-16.563-16.043l-0.296-0.661l0.296-0.661
										c0.294-0.655,7.289-16.043,16.563-16.043h35.69c9.273,0,16.268,15.388,16.562,16.043l0.296,0.661l-0.296,0.661
										C340.399,110.542,333.404,125.93,324.131,125.93z M275.137,109.226c2.067,4.302,7.65,13.47,13.304,13.47h35.69
										c5.653,0,11.234-9.168,13.303-13.47c-2.069-4.302-7.65-13.47-13.303-13.47h-35.69
										C282.776,95.757,277.201,104.924,275.137,109.226z"/>
								</g>
								<g>
									<path fill="#19217F" d="M306.292,125.286c-1.93,0-3.863-0.352-5.72-1.061l0,0c-4.006-1.526-7.179-4.521-8.933-8.433
										c-1.753-3.912-1.879-8.273-0.352-12.279c1.526-4.006,4.521-7.179,8.433-8.932c3.913-1.754,8.274-1.88,12.279-0.352
										c4.006,1.526,7.179,4.52,8.932,8.433c1.754,3.912,1.879,8.273,0.352,12.279c-1.526,4.006-4.521,7.179-8.433,8.933
										C310.753,124.813,308.524,125.286,306.292,125.286z M306.3,96.41c-5.167,0-10.045,3.147-11.991,8.254
										c-2.516,6.604,0.81,14.024,7.415,16.54l0,0c3.199,1.218,6.68,1.118,9.805-0.282c3.124-1.401,5.515-3.934,6.734-7.133
										c1.218-3.2,1.119-6.682-0.282-9.806c-1.4-3.123-3.933-5.515-7.132-6.734C309.353,96.68,307.813,96.41,306.3,96.41z"/>
								</g>
								<g>
									<circle fill="#19217F" cx="306.286" cy="109.227" r="5.809"/>
								</g>
								<g>
									<g>
										<polygon fill="#19217F" points="339.06,131.341 332.303,121.379 334.578,119.323 341.737,129.525 										"/>
									</g>
									<g>
										
											<rect x="322.174" y="127.415" transform="matrix(0.2591 0.9658 -0.9658 0.2591 367.7159 -221.3182)" fill="#19217F" width="11.894" height="3.234"/>
									</g>
									<g>
										
											<rect x="311.349" y="128.396" transform="matrix(0.0787 0.9969 -0.9969 0.0787 421.8913 -196.4876)" fill="#19217F" width="11.805" height="3.234"/>
									</g>
									<g>
										
											<rect x="274.08" y="118.885" transform="matrix(0.844 0.5363 -0.5363 0.844 110.0118 -128.3609)" fill="#19217F" width="3.234" height="12.158"/>
									</g>
									<g>
										
											<rect x="282.833" y="123.085" transform="matrix(0.9659 0.259 -0.259 0.9659 43.1157 -69.2579)" fill="#19217F" width="3.234" height="11.894"/>
									</g>
									<g>
										<rect x="304.668" y="124.129" fill="#19217F" width="3.234" height="11.768"/>
									</g>
									<g>
										
											<rect x="293.703" y="124.11" transform="matrix(0.9969 0.0789 -0.0789 0.9969 11.1762 -22.8909)" fill="#19217F" width="3.234" height="11.805"/>
									</g>
								</g>
								<g>
									<g>
										
											<rect x="335.403" y="87.419" transform="matrix(0.8276 0.5613 -0.5613 0.8276 110.5316 -173.0512)" fill="#19217F" width="3.234" height="12.037"/>
									</g>
									<g>
										
											<rect x="326.504" y="83.91" transform="matrix(0.9659 0.259 -0.259 0.9659 34.461 -81.9028)" fill="#19217F" width="3.234" height="11.894"/>
									</g>
									<g>
										
											<rect x="315.635" y="82.974" transform="matrix(0.9969 0.0785 -0.0785 0.9969 7.9606 -24.643)" fill="#19217F" width="3.234" height="11.805"/>
									</g>
									<g>
										
											<rect x="269.354" y="91.97" transform="matrix(0.5362 0.8441 -0.8441 0.5362 206.7256 -189.0806)" fill="#19217F" width="12.158" height="3.234"/>
									</g>
									<g>
										
											<rect x="278.504" y="88.24" transform="matrix(0.2591 0.9658 -0.9658 0.2591 297.5256 -208.1618)" fill="#19217F" width="11.894" height="3.234"/>
									</g>
									<g>
										<rect x="304.668" y="82.992" fill="#19217F" width="3.234" height="11.768"/>
									</g>
									<g>
										
											<rect x="289.418" y="87.26" transform="matrix(0.0788 0.9969 -0.9969 0.0788 360.6596 -212.5263)" fill="#19217F" width="11.805" height="3.234"/>
									</g>
								</g>
								<g opacity="0.5">
									<circle fill="#FFFFFF" cx="310.011" cy="104.76" r="3.34"/>
								</g>
							</g>
							<g>
								<path fill="#19217F" d="M357.988,120.489c-3.549,0-7.043-1.676-9.22-4.803c-1.712-2.459-2.363-5.437-1.835-8.385
									c0.528-2.949,2.173-5.515,4.632-7.227c2.457-1.712,5.434-2.365,8.385-1.835c2.949,0.528,5.515,2.172,7.227,4.631
									c1.712,2.459,2.363,5.437,1.835,8.385c-0.528,2.949-2.173,5.515-4.632,7.227h0
									C362.432,119.837,360.199,120.489,357.988,120.489z M357.963,104.805c-0.905,0-1.787,0.275-2.545,0.803
									c-0.981,0.682-1.637,1.706-1.847,2.881c-0.211,1.175,0.049,2.363,0.732,3.343c1.409,2.022,4.202,2.523,6.225,1.114h0
									c0.98-0.682,1.636-1.706,1.846-2.881c0.211-1.175-0.049-2.363-0.732-3.343c-0.682-0.98-1.706-1.636-2.881-1.846
									C358.495,104.829,358.228,104.805,357.963,104.805z"/>
							</g>
						</g>
						<path fill="#FFFFFF" d="M270.608,72.069c-1.537-0.863-2.074-2.802-1.201-4.339l0,0l0,0l0,0
							c0.864-1.528,2.811-2.065,4.339-1.192l0,0c1.528,0.864,2.065,2.802,1.201,4.331v0.009c-0.591,1.028-1.665,1.61-2.775,1.61l0,0
							C271.636,72.487,271.099,72.351,270.608,72.069z M276.239,62.718c-1.41-1.055-1.692-3.048-0.637-4.458l0,0l0,0l0,0
							c1.046-1.41,3.047-1.701,4.458-0.646l0,0c1.4,1.055,1.692,3.047,0.636,4.458l0,0c-0.628,0.837-1.582,1.273-2.547,1.273l0,0
							C277.485,63.346,276.812,63.146,276.239,62.718z M283.016,54.149c-1.265-1.228-1.292-3.248-0.064-4.503l0,0
							c1.228-1.265,3.248-1.292,4.503-0.064l0,0c1.255,1.228,1.282,3.248,0.055,4.503l0,0c-0.619,0.646-1.447,0.964-2.274,0.964l0,0
							C284.434,55.049,283.634,54.749,283.016,54.149z M290.848,46.544c-1.082-1.392-0.837-3.393,0.555-4.467l0,0
							c1.392-1.083,3.384-0.837,4.466,0.555l0,0c1.083,1.382,0.828,3.384-0.555,4.466l0,0c-0.582,0.455-1.274,0.673-1.956,0.673l0,0
							C292.412,47.772,291.475,47.345,290.848,46.544z M299.653,40.095c-0.873-1.529-0.345-3.475,1.183-4.34l0,0
							c1.528-0.873,3.475-0.345,4.348,1.182l0,0c0.873,1.529,0.337,3.475-1.192,4.339l0,0c-0.491,0.291-1.037,0.427-1.574,0.427l0,0
							C301.318,41.705,300.235,41.123,299.653,40.095z M309.286,34.974c-0.646-1.638,0.155-3.494,1.792-4.13l0,0
							c1.638-0.656,3.484,0.154,4.13,1.783l0,0c0.646,1.637-0.154,3.484-1.792,4.139l0,0c-0.382,0.146-0.783,0.219-1.165,0.219l0,0
							C310.978,36.984,309.778,36.219,309.286,34.974z M319.548,31.262c-0.418-1.71,0.627-3.43,2.337-3.848l0,0
							c1.71-0.418,3.43,0.628,3.848,2.338l0,0c0.418,1.71-0.628,3.429-2.338,3.847l0,0c-0.255,0.064-0.509,0.092-0.755,0.092l0,0
							C321.203,33.691,319.902,32.718,319.548,31.262z M330.209,28.97c-0.2-1.746,1.055-3.329,2.802-3.529l0,0
							c1.746-0.2,3.329,1.064,3.529,2.811l0,0c0.191,1.746-1.064,3.321-2.811,3.52l0,0c-0.118,0.009-0.236,0.019-0.355,0.019l0,0
							C331.773,31.79,330.391,30.589,330.209,28.97z M341.079,28.006c0-1.765,1.419-3.193,3.174-3.193l0,0
							c1.765,0,3.194,1.428,3.194,3.184l0,0c0,1.755-1.428,3.184-3.184,3.184l0,0C342.507,31.181,341.079,29.761,341.079,28.006z"/>
						<g>
							<path fill="#FFFFFF" d="M265.102,263.837c0.552,0.37,1.176,0.546,1.793,0.546c1.052,0,2.085-0.507,2.708-1.449
								c0.993-1.494,0.59-3.507-0.903-4.501c-1.487-0.994-3.507-0.591-4.501,0.903C263.206,260.83,263.609,262.843,265.102,263.837z
								"/>
							<path fill="#FFFFFF" d="M-9.183,289.068c0.552,0.37,1.176,0.545,1.793,0.545c1.052,0,2.085-0.507,2.708-1.449
								c0.993-1.494,0.59-3.507-0.903-4.501c-1.487-0.994-3.507-0.591-4.501,0.903C-11.079,286.06-10.676,288.074-9.183,289.068z"/>
						</g>
					</g>
				</g>
				<g>
					<path fill="#FFFFFF" d="M105.663,310.067c-3.677,0-7.303-0.303-10.75-0.873c-12.529-2.073-24.109-6.974-35.307-11.715
						c-4.241-1.795-8.627-3.652-12.968-5.31c-16.974-6.485-30.964-8.374-42.77-5.776c-1.715,0.378-3.416-0.707-3.794-2.425
						c-0.378-1.717,0.707-3.416,2.425-3.793c13.059-2.873,28.239-0.895,46.411,6.046c4.447,1.698,8.886,3.577,13.178,5.395
						c10.855,4.595,22.081,9.347,33.864,11.296c10.642,1.761,23.833,0.633,33.368-4.877c-0.229-0.164-0.455-0.331-0.679-0.501
						c-5.903-4.483-9.09-10.605-8.524-16.375c0.339-3.456,2.239-6.795,5.212-9.161c2.962-2.356,6.537-3.402,10.061-2.945
						c4.36,0.564,7.787,3.108,9.651,7.164c2.398,5.217,1.785,12.113-1.525,17.16c-0.791,1.207-1.661,2.341-2.601,3.404
						c8.41,2.742,19.036,2.531,30.082-0.798c7.848-2.366,15.394-5.955,22.692-9.424c5.25-2.496,10.677-5.078,16.271-7.243
						c5.649-2.187,14.168-4.999,22.88-4.156c1.854,0.179,3.785,0.567,5.687,1.164c4.383-1.307,9.11-1.6,13.222-1.075
						c9.149,1.165,17.063,5.407,24.717,9.511l0.318,0.171c7.883,4.225,15.047,7.776,22.899,8.437
						c6.538,0.548,13.159-1.214,18.445-4.567c-7.426-4.909-9.15-10.818-9.99-13.694c-1.04-3.554-0.582-7.468,1.253-10.746
						c1.69-3.019,4.403-5.165,7.638-6.045c6.176-1.679,13.546,1.738,16.443,7.613c2.323,4.715,1.996,10.695-0.898,16.405
						c-0.86,1.697-1.912,3.305-3.124,4.808c6.327,2.081,15.373,3.428,28.365,3.138l167.127-0.174
						c48.532,0,88.013-39.481,88.013-88.009V96.12c0-52.76-27.556-62.61-37.93-66.318c-5.802-2.073-11.89-2.795-17.69-2.252
						c0.354,1.133,0.606,2.248,0.756,3.333c1.523,11.021-2.218,22.564-9.765,30.123c-2.654,2.66-8.083,6.95-14.597,5.751
						c-4.812-0.88-8.912-4.77-10.444-9.909c-1.542-5.172-0.295-10.188,1.022-13.487c1.82-4.558,4.923-8.844,8.973-12.397
						c4.193-3.677,9.218-6.373,14.671-8.023c-4.606-6.436-12.975-12.496-23.703-14.909c-13.229-2.976-22.335-1.627-28.589,1.468
						c2.248,1.776,4.139,3.945,5.48,6.592c2.893,5.71,3.221,11.689,0.898,16.403c-2.897,5.878-10.267,9.297-16.443,7.615
						c-3.236-0.88-5.949-3.027-7.639-6.045c-1.835-3.277-2.293-7.191-1.256-10.738c0.818-2.797,2.804-7.973,7.135-12.738
						c-4.923-1.609-11.075-2.479-18.093-2.479H337.104c-48.529,0-88.009,39.481-88.009,88.009v105.975
						c0,17.232,4.978,33.918,14.397,48.256c0.966,1.47,0.557,3.444-0.913,4.41c-1.468,0.966-3.443,0.557-4.409-0.913
						c-10.103-15.38-15.442-33.275-15.442-51.753V96.12c0-52.04,42.337-94.377,94.377-94.377h128.639
						c6.408,0,15.818,0.694,23.618,4.07c7.393-4.974,18.795-7.927,36.285-3.993c13.819,3.107,23.866,11.263,28.919,19.663
						c7.378-1.052,15.2-0.325,22.605,2.322c18.096,6.468,42.155,21.002,42.155,72.314v105.975c0,52.04-42.337,94.377-94.377,94.377
						l-167.056,0.173c-15.589,0.347-26.189-1.635-33.454-4.575c-6.865,5.412-16.156,8.412-25.287,7.641
						c-9.066-0.762-16.855-4.603-25.374-9.168l-0.318-0.171c-7.144-3.831-14.531-7.791-22.512-8.807
						c-1.063-0.136-2.122-0.195-3.287-0.201c2.094,1.881,3.766,4.182,4.719,6.909c1.384,3.962,0.709,8.584-1.805,12.364
						c-2.559,3.847-6.561,6.206-10.98,6.473c-5.145,0.305-9.952-2.271-12.859-6.91c-2.919-4.659-3.208-10.268-0.754-14.638
						c0.895-1.594,2.025-2.987,3.328-4.195c-4.895,0.028-10.291,1.27-17.049,3.886c-5.373,2.08-10.692,4.61-15.835,7.055
						c-7.512,3.572-15.28,7.266-23.588,9.77c-13.716,4.136-27.043,3.869-37.223-0.514
						C127.375,307.525,116.313,310.066,105.663,310.067z M238.487,283.054c-2.985,1.2-5.512,3.058-6.955,5.626
						c-1.292,2.302-1.057,5.496,0.598,8.139c1.65,2.633,4.306,4.093,7.078,3.936c2.409-0.147,4.619-1.475,6.063-3.646
						c1.416-2.128,1.826-4.646,1.096-6.735C245.297,287.313,242.341,284.666,238.487,283.054z M133.779,275.317
						c-1.551,0-3.117,0.577-4.485,1.665c-1.608,1.279-2.669,3.074-2.839,4.799c-0.349,3.552,1.908,7.545,6.038,10.682
						c0.72,0.546,1.476,1.058,2.264,1.533c1.293-1.237,2.447-2.605,3.435-4.11c2.086-3.182,2.534-7.812,1.064-11.01
						c-0.941-2.047-2.517-3.227-4.683-3.508C134.31,275.334,134.045,275.317,133.779,275.317z M320.386,264.239
						c-0.564,0-1.129,0.07-1.683,0.22c-2.017,0.549-3.155,1.941-3.754,3.012c-0.99,1.77-1.252,3.953-0.7,5.841
						c0.687,2.351,2.121,7.249,9.095,11.188c1.426-1.532,2.63-3.224,3.552-5.044c1.98-3.907,2.295-7.811,0.866-10.712
						C326.588,266.361,323.497,264.239,320.386,264.239z M551.018,28.673c-5.063,1.348-9.717,3.73-13.537,7.081
						c-3.298,2.892-5.808,6.34-7.259,9.971c-1.332,3.336-1.628,6.639-0.833,9.304c0.841,2.822,3.047,5.019,5.488,5.466
						c3.797,0.69,7.518-2.557,8.944-3.987c6.169-6.179,9.221-15.664,7.965-24.753C551.647,30.753,551.389,29.721,551.018,28.673z
						 M489.991,13.374c-4.272,3.919-6.268,8.628-7.179,11.741c-0.552,1.888-0.29,4.071,0.701,5.841
						c0.6,1.07,1.738,2.462,3.754,3.011c3.613,0.978,7.672-1.471,9.059-4.285c1.429-2.9,1.113-6.805-0.866-10.711
						C494.369,16.816,492.508,14.937,489.991,13.374z"/>
				</g>
			</g>
		</g>
	</g>
	<g>
		<defs>
			<path id="SVGID_5_" d="M585.902-42.18H47.719c-16.903,0-30.606,13.703-30.606,30.606v338.384
				c0,16.903,13.703,30.606,30.606,30.606l538.182,0c16.903,0,30.606-13.703,30.606-30.606V-11.573
				C616.508-28.477,602.805-42.18,585.902-42.18z"/>
		</defs>
		<clipPath id="SVGID_6_">
			<use xlink:href="#SVGID_5_"  overflow="visible"/>
		</clipPath>
	</g>
</g>
</svg>
